<svg width="24" height="24" viewBox="0 0 24 24" fill="none" xmlns="http://www.w3.org/2000/svg">
<path d="M12 16.8C10.224 16.8 8.7 15.828 7.86 14.4H5.856C6.816 16.86 9.204 18.6 12 18.6C14.796 18.6 17.184 16.86 18.144 14.4H16.14C15.312 15.828 13.776 16.8 12 16.8ZM11.988 0C5.364 0 0 5.376 0 12C0 18.624 5.364 24 11.988 24C18.624 24 24 18.624 24 12C24 5.376 18.624 0 11.988 0ZM12 21.6C6.696 21.6 2.4 17.304 2.4 12C2.4 6.696 6.696 2.4 12 2.4C17.304 2.4 21.6 6.696 21.6 12C21.6 17.304 17.304 21.6 12 21.6Z" fill="#F9F9F9"/>
<path d="M7.8 10.8C8.79411 10.8 9.6 9.99406 9.6 8.99995C9.6 8.00584 8.79411 7.19995 7.8 7.19995C6.80589 7.19995 6 8.00584 6 8.99995C6 9.99406 6.80589 10.8 7.8 10.8Z" fill="#F9F9F9"/>
<path d="M16.1999 10.8C17.194 10.8 17.9999 9.99406 17.9999 8.99995C17.9999 8.00584 17.194 7.19995 16.1999 7.19995C15.2058 7.19995 14.3999 8.00584 14.3999 8.99995C14.3999 9.99406 15.2058 10.8 16.1999 10.8Z" fill="#F9F9F9"/>
</svg>
