<svg width="140" height="140" viewBox="0 0 140 140" fill="none" xmlns="http://www.w3.org/2000/svg">
<path fill-rule="evenodd" clip-rule="evenodd" d="M79.864 75.718C79.037 75.311 78.238 74.856 77.446 74.392C74.902 72.898 77.6 69.652 79.544 70.775C81.083 71.664 82.519 72.386 84.182 73.016C90.188 75.293 97.174 75.269 104.211 71.921V65.238C96.272 61.742 88.748 62.452 82.696 65.707C80.835 66.708 79.108 67.948 77.547 69.378C76.72 70.213 75.335 71.634 74.652 72.481C74.241 72.996 73.848 73.527 73.473 74.071C71.64 77.136 67.523 75.271 69.997 71.673C71.197 69.827 72.812 68.079 74.337 66.595C76.246 64.789 78.381 63.229 80.698 61.983C87.41 58.373 95.604 57.384 104.21 60.651V55.709C104.21 52.049 102.257 48.666 99.087 46.836L83.9 38.068C83.804 46.242 80.531 53.188 75.53 58.331C74.888 58.991 74.208 59.611 73.521 60.22C71.314 62.178 69.06 58.608 70.73 57.107C72.051 55.918 73.181 54.776 74.295 53.389C78.039 48.727 80.147 42.641 79.607 35.589L75.227 33.06C74.501 32.641 73.735 32.322 72.949 32.095C67.285 38.528 65.67 45.838 66.885 52.543C67.262 54.622 67.907 56.648 68.785 58.575C69.323 59.619 70.247 61.375 70.841 62.287C71.204 62.837 71.587 63.375 71.989 63.899C74.337 66.59 71.291 69.929 68.634 66.463C67.249 64.752 66.086 62.675 65.146 60.766C64.019 58.392 63.195 55.88 62.726 53.291C61.46 46.304 62.758 38.796 67.605 32C66.698 32.228 65.815 32.579 64.983 33.059L45.044 44.572C50.706 47.462 54.928 51.917 57.653 57.092C58.082 57.907 58.461 58.746 58.828 59.587C60.007 62.292 55.915 63.33 55.004 61.278C54.283 59.654 53.546 58.226 52.572 56.737C49.84 52.563 45.813 49.165 40.563 47.184C37.725 49.075 36 52.269 36 55.708V56.77C39.888 60.693 44.602 62.857 49.474 63.521C51.568 63.806 53.694 63.819 55.798 63.581C56.958 63.392 58.913 63.058 59.964 62.774C60.6 62.599 61.23 62.401 61.853 62.181C65.138 60.781 67.371 64.711 63.253 66.165C61.197 66.952 58.862 67.415 56.756 67.719C54.15 68.056 51.506 68.062 48.899 67.707C44.34 67.086 39.907 65.372 36 62.419V80.997C40.335 77 45.541 74.62 50.944 73.686C51.852 73.529 52.766 73.427 53.68 73.338C56.617 73.051 56.342 77.264 54.109 77.497C52.341 77.682 50.756 77.942 49.04 78.41C44.359 79.685 39.997 82.349 36.537 86.525C37.321 88.855 38.93 90.864 41.123 92.131L44.343 93.99C49.074 91.5 52.458 87.765 54.538 83.45C55.455 81.546 56.124 79.528 56.546 77.453C56.724 76.292 57.009 74.328 57.064 73.241C57.094 72.582 57.1 71.922 57.083 71.262C56.765 67.705 61.192 66.794 61.305 71.16C61.419 73.358 61.14 75.722 60.778 77.819C60.295 80.402 59.485 82.919 58.343 85.289C56.222 89.689 52.974 93.574 48.578 96.435L64.983 105.907C66.657 106.874 68.537 107.324 70.404 107.27C65.239 100.402 63.667 92.542 64.746 85.167C64.879 84.256 65.067 83.355 65.267 82.459C65.908 79.579 69.826 81.151 69.353 83.346C68.979 85.083 68.733 86.671 68.643 88.448C68.339 94.463 70.225 100.675 74.867 106.1C74.988 106.037 75.11 105.976 75.229 105.907L82.344 101.799C82.259 94.702 79.445 88.924 75.144 84.791C73.62 83.327 71.91 82.064 70.07 81.017C69.022 80.486 67.244 79.604 66.228 79.214C65.611 78.981 64.986 78.769 64.353 78.58C60.874 77.775 61.386 73.285 65.569 74.536C67.694 75.111 69.853 76.113 71.734 77.108C74.038 78.371 76.178 79.924 78.075 81.747C82.685 86.177 85.859 92.166 86.486 99.408L99.088 92.132C102.258 90.302 104.211 86.92 104.211 83.259V76.525C95.548 80.033 86.982 79.22 79.864 75.718Z" fill="#0075C4"/>
</svg>
