<svg width="200" height="200" viewBox="0 0 200 200" fill="none" xmlns="http://www.w3.org/2000/svg">
<path fill-rule="evenodd" clip-rule="evenodd" d="M119.241 111.961C117.653 111.179 116.119 110.305 114.598 109.414C109.712 106.545 114.893 100.311 118.627 102.468C121.582 104.175 124.34 105.562 127.534 106.772C139.069 111.145 152.485 111.099 166 104.669V91.834C150.753 85.1199 136.303 86.4834 124.68 92.7347C121.106 94.6571 117.789 97.0386 114.791 99.7849C113.203 101.389 110.543 104.118 109.232 105.744C108.442 106.733 107.688 107.753 106.967 108.798C103.447 114.684 95.5403 111.102 100.292 104.192C102.596 100.647 105.698 97.2901 108.627 94.4401C112.293 90.9716 116.393 87.9757 120.843 85.5827C133.733 78.6497 149.47 76.7503 165.998 83.0246V73.5334C165.998 66.5043 162.247 60.0072 156.159 56.4927L126.992 39.6537C126.808 55.3519 120.522 68.6918 110.918 78.569C109.685 79.8365 108.379 81.0272 107.06 82.1968C102.821 85.9572 98.4921 79.101 101.699 76.2183C104.236 73.9348 106.407 71.7416 108.546 69.0778C115.736 60.1244 119.785 48.4362 118.748 34.8927L110.336 30.0357C108.942 29.231 107.47 28.6184 105.961 28.1825C95.0832 40.5371 91.9816 54.576 94.315 67.4531C95.039 71.4458 96.2777 75.3368 97.964 79.0376C98.9972 81.0426 100.772 84.415 101.913 86.1665C102.61 87.2228 103.345 88.256 104.117 89.2624C108.627 94.4305 102.777 100.843 97.674 94.1866C95.014 90.9006 92.7805 86.9117 90.9752 83.2454C88.8108 78.6861 87.2283 73.8618 86.3276 68.8896C83.8962 55.471 86.389 41.0518 95.6978 28C93.9558 28.4379 92.26 29.112 90.6622 30.0338L52.3691 52.1447C63.243 57.695 71.3514 66.2508 76.5848 76.1895C77.4087 77.7547 78.1366 79.366 78.8414 80.9811C81.1057 86.1761 73.247 88.1696 71.4974 84.2287C70.1127 81.1098 68.6973 78.3673 66.8267 75.5077C61.5799 67.4915 53.846 60.9656 43.7633 57.1611C38.3129 60.7927 35 66.9269 35 73.5315V75.5711C42.4669 83.1052 51.5202 87.2612 60.877 88.5364C64.8985 89.0838 68.9815 89.1088 73.0223 88.6517C75.2501 88.2887 79.0047 87.6472 81.0231 87.1018C82.2446 86.7657 83.4545 86.3855 84.651 85.963C90.9598 83.2742 95.2483 90.8219 87.3397 93.6143C83.3911 95.1257 78.9067 96.0149 74.8621 96.5987C69.8573 97.246 64.7794 97.2575 59.7727 96.5757C51.0171 95.3831 42.5034 92.0913 35 86.42V122.099C43.3254 114.423 53.3236 109.852 63.7001 108.058C65.4439 107.757 67.1993 107.561 68.9546 107.39C74.5952 106.839 74.067 114.93 69.7785 115.378C66.3831 115.733 63.3391 116.232 60.0435 117.131C51.0535 119.58 42.6763 124.696 36.0313 132.716C37.537 137.191 40.6271 141.049 44.8388 143.482L51.0228 147.053C60.1088 142.27 66.6078 135.097 70.6024 126.81C72.3635 123.154 73.6484 119.278 74.4588 115.293C74.8007 113.063 75.348 109.291 75.4536 107.204C75.5113 105.938 75.5228 104.671 75.4901 103.403C74.8794 96.5719 83.3815 94.8223 83.5985 103.207C83.8175 107.429 83.2816 111.969 82.5864 115.996C81.6588 120.957 80.1032 125.791 77.91 130.342C73.8366 138.792 67.5988 146.254 59.1562 151.748L90.6622 169.939C93.8771 171.796 97.4877 172.661 101.073 172.557C91.1538 159.367 88.1348 144.272 90.207 130.108C90.4624 128.358 90.8235 126.628 91.2076 124.907C92.4386 119.376 99.9632 122.395 99.0548 126.611C98.3365 129.947 97.8641 132.996 97.6912 136.409C97.1074 147.961 100.729 159.891 109.645 170.31C109.877 170.189 110.111 170.072 110.34 169.939L124.004 162.05C123.841 148.42 118.437 137.323 110.176 129.386C107.25 126.574 103.966 124.148 100.432 122.138C98.4191 121.118 95.0044 119.424 93.0532 118.675C91.8682 118.228 90.6679 117.82 89.4522 117.457C82.7708 115.911 83.7541 107.288 91.7876 109.691C95.8687 110.795 100.015 112.72 103.628 114.63C108.052 117.056 112.162 120.039 115.805 123.54C124.659 132.048 130.755 143.549 131.959 157.458L156.161 143.484C162.249 139.97 166 133.474 166 126.443V113.511C149.363 120.248 132.911 118.687 119.241 111.961Z" fill="white"/>
</svg>
