<svg width="28" height="28" viewBox="0 0 28 28" fill="none" xmlns="http://www.w3.org/2000/svg">
<path d="M14.0334 7.9944C15.682 7.9944 17.0248 6.66225 17.0434 5.01819C16.0976 4.70257 15.0856 4.53107 14.0334 4.53107C12.9813 4.53107 11.9692 4.70231 11.0234 5.01819C11.0421 6.66251 12.3848 7.9944 14.0334 7.9944Z" fill="url(#paint0_linear_667_48)"/>
<path d="M14.0319 9.22051C11.8739 9.22051 10.0889 7.59853 9.82884 5.50989C9.53236 5.6564 9.24466 5.8178 8.9668 5.99329C9.4377 8.35953 11.5295 10.1488 14.0319 10.1488C16.5343 10.1488 18.6264 8.35953 19.097 5.99329C18.8192 5.8178 18.5312 5.6564 18.235 5.50989C17.9749 7.59853 16.1899 9.22051 14.0319 9.22051Z" fill="url(#paint1_linear_667_48)"/>
<path d="M14.0319 18.8444C16.1899 18.8444 17.9749 20.4664 18.235 22.5553C18.5315 22.4088 18.8192 22.2474 19.097 22.0719C18.6261 19.7057 16.5343 17.9164 14.0319 17.9164C11.5295 17.9164 9.43744 19.7057 8.9668 22.0719C9.24466 22.2474 9.53263 22.4088 9.82884 22.5553C10.0889 20.4664 11.8739 18.8444 14.0319 18.8444Z" fill="url(#paint2_linear_667_48)"/>
<path d="M19.3687 15.101C19.7635 14.8918 20.1448 14.6607 20.511 14.4084C21.4959 15.146 22.3513 16.0474 23.037 17.0713C23.359 16.117 23.5335 15.0952 23.5335 14.0321C23.5335 12.9693 23.3588 11.9472 23.037 10.9929C22.3513 12.0169 21.4959 12.9183 20.511 13.6559C19.7588 14.2193 18.9297 14.6844 18.045 15.0388C16.803 15.536 15.4499 15.8126 14.0324 15.8126C12.6149 15.8126 11.2617 15.536 10.0197 15.0388C10.6142 14.741 11.2457 14.5073 11.906 14.3464C12.5904 14.5017 13.3014 14.5865 14.0324 14.5865C14.7633 14.5865 15.4743 14.5017 16.1588 14.3464C17.3223 14.0821 18.4072 13.6083 19.3687 12.9632C20.6418 12.1091 21.6998 10.9586 22.4441 9.61154C21.8721 8.52535 21.096 7.56359 20.1666 6.77679C19.3894 9.4302 16.9338 11.3739 14.0324 11.3739C11.1309 11.3739 8.67529 9.4302 7.89806 6.77679C6.96875 7.56332 6.19259 8.52508 5.62064 9.61154C6.36489 10.9586 7.4229 12.1091 8.69603 12.9632C8.30117 13.1725 7.91987 13.4035 7.55373 13.6559C6.56883 12.9183 5.71344 12.0169 5.02768 10.9929C4.70568 11.9472 4.53125 12.9691 4.53125 14.0321C4.53125 15.0949 4.70595 16.117 5.02768 17.0713C5.71344 16.0474 6.56883 15.146 7.55373 14.4084C8.30595 13.8449 9.13476 13.3799 10.0197 13.0254C11.2617 12.5282 12.6149 12.2517 14.0324 12.2517C15.4499 12.2517 16.803 12.5282 18.045 13.0254C17.4505 13.3232 16.819 13.557 16.1588 13.7178C15.4743 13.5625 14.7633 13.4777 14.0324 13.4777C13.3014 13.4777 12.5904 13.5625 11.906 13.7178C10.7424 13.9819 9.65752 14.456 8.69603 15.101C7.4229 15.9551 6.36489 17.1056 5.62064 18.4527C6.19259 19.5389 6.96875 20.5006 7.89806 21.2874C8.67529 18.634 11.1309 16.6903 14.0324 16.6903C16.9338 16.6903 19.3894 18.634 20.1666 21.2874C21.096 20.5009 21.8721 19.5389 22.4441 18.4527C21.6998 17.1059 20.6418 15.9554 19.3687 15.101Z" fill="url(#paint3_linear_667_48)"/>
<path d="M14.0334 20.0702C12.3848 20.0702 11.0421 21.4021 11.0234 23.0464C11.9695 23.362 12.9813 23.5335 14.0334 23.5335C15.0856 23.5335 16.0976 23.362 17.0434 23.0464C17.0248 21.4023 15.682 20.0702 14.0334 20.0702Z" fill="url(#paint4_linear_667_48)"/>
<defs>
<linearGradient id="paint0_linear_667_48" x1="14.0334" y1="4.53107" x2="14.0334" y2="7.9944" gradientUnits="userSpaceOnUse">
<stop stop-color="#3A6EC8"/>
<stop offset="1" stop-color="#6DA1C4"/>
</linearGradient>
<linearGradient id="paint1_linear_667_48" x1="14.0319" y1="5.50989" x2="14.0319" y2="10.1488" gradientUnits="userSpaceOnUse">
<stop stop-color="#3A6EC8"/>
<stop offset="1" stop-color="#6DA1C4"/>
</linearGradient>
<linearGradient id="paint2_linear_667_48" x1="14.0319" y1="17.9164" x2="14.0319" y2="22.5553" gradientUnits="userSpaceOnUse">
<stop stop-color="#3A6EC8"/>
<stop offset="1" stop-color="#6DA1C4"/>
</linearGradient>
<linearGradient id="paint3_linear_667_48" x1="14.0324" y1="6.77679" x2="14.0324" y2="21.2874" gradientUnits="userSpaceOnUse">
<stop stop-color="#3A6EC8"/>
<stop offset="1" stop-color="#6DA1C4"/>
</linearGradient>
<linearGradient id="paint4_linear_667_48" x1="14.0334" y1="20.0702" x2="14.0334" y2="23.5335" gradientUnits="userSpaceOnUse">
<stop stop-color="#3A6EC8"/>
<stop offset="1" stop-color="#6DA1C4"/>
</linearGradient>
</defs>
</svg>
