<svg width="638" height="638" viewBox="0 0 638 638" fill="none" xmlns="http://www.w3.org/2000/svg">
<path d="M319.734 182.159C357.298 182.159 387.894 151.805 388.318 114.344C366.768 107.153 343.708 103.245 319.734 103.245C295.76 103.245 272.7 107.147 251.149 114.344C251.574 151.811 282.17 182.159 319.734 182.159Z" fill="url(#paint0_linear_667_41)"/>
<path d="M319.733 210.096C270.561 210.096 229.889 173.138 223.964 125.547C217.208 128.885 210.653 132.563 204.321 136.562C215.051 190.478 262.715 231.247 319.733 231.247C376.752 231.247 424.422 190.478 435.146 136.562C428.814 132.563 422.253 128.885 415.503 125.547C409.578 173.138 368.906 210.096 319.733 210.096Z" fill="url(#paint1_linear_667_41)"/>
<path d="M319.733 429.385C368.906 429.385 409.578 466.343 415.503 513.94C422.259 510.601 428.814 506.924 435.146 502.925C424.416 449.009 376.752 408.24 319.733 408.24C262.715 408.24 215.045 449.009 204.321 502.925C210.653 506.924 217.214 510.601 223.964 513.94C229.889 466.343 270.561 429.385 319.733 429.385Z" fill="url(#paint2_linear_667_41)"/>
<path d="M441.327 344.09C450.324 339.322 459.012 334.057 467.355 328.307C489.796 345.114 509.287 365.653 524.913 388.985C532.25 367.241 536.224 343.957 536.224 319.734C536.224 295.518 532.244 272.228 524.913 250.483C509.287 273.815 489.796 294.354 467.355 311.161C450.215 324 431.324 334.596 411.167 342.672C382.866 354.002 352.034 360.303 319.735 360.303C287.436 360.303 256.603 354.002 228.303 342.672C241.85 335.887 256.239 330.561 271.283 326.896C286.878 330.434 303.079 332.367 319.735 332.367C336.39 332.367 352.591 330.434 368.186 326.896C394.699 320.873 419.418 310.077 441.327 295.378C470.336 275.918 494.443 249.702 511.402 219.008C498.369 194.259 480.684 172.344 459.509 154.417C441.799 214.876 385.847 259.165 319.735 259.165C253.622 259.165 197.67 214.876 179.96 154.417C158.785 172.338 141.1 194.252 128.068 219.008C145.026 249.702 169.133 275.918 198.143 295.378C189.145 300.146 180.457 305.411 172.114 311.161C149.673 294.354 130.182 273.815 114.557 250.483C107.22 272.228 103.245 295.512 103.245 319.734C103.245 343.951 107.226 367.241 114.557 388.985C130.182 365.653 149.673 345.114 172.114 328.307C189.254 315.469 208.139 304.872 228.303 296.796C256.603 285.466 287.436 279.165 319.735 279.165C352.034 279.165 382.866 285.466 411.167 296.796C397.619 303.582 383.23 308.907 368.186 312.573C352.591 309.035 336.39 307.102 319.735 307.102C303.079 307.102 286.878 309.035 271.283 312.573C244.77 318.589 220.051 329.392 198.143 344.09C169.133 363.551 145.026 389.767 128.068 420.46C141.1 445.21 158.785 467.124 179.96 485.052C197.67 424.592 253.622 380.303 319.735 380.303C385.847 380.303 441.799 424.592 459.509 485.052C480.684 467.13 498.369 445.21 511.402 420.46C494.443 389.773 470.336 363.557 441.327 344.09Z" fill="url(#paint3_linear_667_41)"/>
<path d="M319.734 457.315C282.17 457.315 251.574 487.663 251.149 525.13C272.706 532.322 295.76 536.23 319.734 536.23C343.708 536.23 366.768 532.322 388.318 525.13C387.894 487.669 357.298 457.315 319.734 457.315Z" fill="url(#paint4_linear_667_41)"/>
<defs>
<linearGradient id="paint0_linear_667_41" x1="319.734" y1="103.245" x2="319.734" y2="182.159" gradientUnits="userSpaceOnUse">
<stop stop-color="#3A6EC8"/>
<stop offset="1" stop-color="#6DA1C4"/>
</linearGradient>
<linearGradient id="paint1_linear_667_41" x1="319.733" y1="125.547" x2="319.733" y2="231.247" gradientUnits="userSpaceOnUse">
<stop stop-color="#3A6EC8"/>
<stop offset="1" stop-color="#6DA1C4"/>
</linearGradient>
<linearGradient id="paint2_linear_667_41" x1="319.733" y1="408.24" x2="319.733" y2="513.94" gradientUnits="userSpaceOnUse">
<stop stop-color="#3A6EC8"/>
<stop offset="1" stop-color="#6DA1C4"/>
</linearGradient>
<linearGradient id="paint3_linear_667_41" x1="319.735" y1="154.417" x2="319.735" y2="485.052" gradientUnits="userSpaceOnUse">
<stop stop-color="#3A6EC8"/>
<stop offset="1" stop-color="#6DA1C4"/>
</linearGradient>
<linearGradient id="paint4_linear_667_41" x1="319.734" y1="457.315" x2="319.734" y2="536.23" gradientUnits="userSpaceOnUse">
<stop stop-color="#3A6EC8"/>
<stop offset="1" stop-color="#6DA1C4"/>
</linearGradient>
</defs>
</svg>
