<svg width="1843" height="1008" viewBox="0 0 1843 1008" fill="none" xmlns="http://www.w3.org/2000/svg">
<g opacity="0.9" clip-path="url(#clip0_609_3)">
<rect width="1843" height="1008" fill="#111212"/>
<g style="mix-blend-mode:color-dodge" filter="url(#filter0_iiiif_609_3)">
<path d="M-46.3821 -215.556C-19.7944 -644.478 17.4698 -836.074 107.224 -992.117C155.778 -1076.53 254.347 -1075.18 316.829 -1083.81C371.014 -1091.3 407.372 -1068.02 437.143 -1048.38C474.572 -1023.69 494.338 -975.31 506.589 -931.919C545.529 -793.998 457.203 -551.132 424.654 -467.231C388.21 -373.289 196.787 -47.3924 61.076 145.22C-18.8707 258.687 -76.5435 444.395 -86.3363 521.376C-92.907 573.029 -85.0579 620.964 -66.6865 655.696C-42.5427 701.341 16.3941 691.821 54.8293 683.665C131.044 667.494 212.951 586.366 355.083 426.052C453.579 314.957 576.996 140.717 736.336 -116.669C938.281 -442.874 1083.96 -658.326 1176.58 -712.037C1247.1 -752.932 1371.69 -699.638 1493.77 -611.048C1516.34 -594.673 1519.12 -567.396 1522.1 -545.595C1527.89 -503.308 1495.94 -387.023 1441.76 -215C1394.53 -65.0294 1306.38 48.2388 1200.31 155.242C934.939 422.931 737.135 515.419 665.588 598.491C594.981 680.473 550.135 794.707 522.94 880.668C495.412 967.682 541.805 1035.38 571.586 1078.31C597.548 1115.73 661.386 1132.13 734.384 1142.97C804.057 1153.32 918.069 1037.62 1006.79 927.494C1175.41 718.186 1179.73 635.634 1268.41 575.29C1373.03 504.101 1452.32 553.075 1513.21 566.989C1537.5 575.35 1555.91 601.204 1565.73 640.584C1568.05 659.198 1564.97 675.028 1561.79 691.338" stroke="url(#paint0_radial_609_3)" stroke-width="300" stroke-linecap="round"/>
<path d="M-46.3821 -215.556C-19.7944 -644.478 17.4698 -836.074 107.224 -992.117C155.778 -1076.53 254.347 -1075.18 316.829 -1083.81C371.014 -1091.3 407.372 -1068.02 437.143 -1048.38C474.572 -1023.69 494.338 -975.31 506.589 -931.919C545.529 -793.998 457.203 -551.132 424.654 -467.231C388.21 -373.289 196.787 -47.3924 61.076 145.22C-18.8707 258.687 -76.5435 444.395 -86.3363 521.376C-92.907 573.029 -85.0579 620.964 -66.6865 655.696C-42.5427 701.341 16.3941 691.821 54.8293 683.665C131.044 667.494 212.951 586.366 355.083 426.052C453.579 314.957 576.996 140.717 736.336 -116.669C938.281 -442.874 1083.96 -658.326 1176.58 -712.037C1247.1 -752.932 1371.69 -699.638 1493.77 -611.048C1516.34 -594.673 1519.12 -567.396 1522.1 -545.595C1527.89 -503.308 1495.94 -387.023 1441.76 -215C1394.53 -65.0294 1306.38 48.2388 1200.31 155.242C934.939 422.931 737.135 515.419 665.588 598.491C594.981 680.473 550.135 794.707 522.94 880.668C495.412 967.682 541.805 1035.38 571.586 1078.31C597.548 1115.73 661.386 1132.13 734.384 1142.97C804.057 1153.32 918.069 1037.62 1006.79 927.494C1175.41 718.186 1179.73 635.634 1268.41 575.29C1373.03 504.101 1452.32 553.075 1513.21 566.989C1537.5 575.35 1555.91 601.204 1565.73 640.584C1568.05 659.198 1564.97 675.028 1561.79 691.338" stroke="url(#paint1_radial_609_3)" stroke-width="300" stroke-linecap="round" style="mix-blend-mode:plus-lighter"/>
</g>
<g style="mix-blend-mode:color-dodge" filter="url(#filter1_iiiif_609_3)">
<path d="M-486.551 -4.86607C-459.963 -433.788 -422.699 -625.384 -332.944 -781.427C-284.391 -865.839 -185.821 -864.493 -123.339 -873.122C-69.1543 -880.605 -32.7961 -857.328 -3.02512 -837.689C34.4033 -812.999 54.1695 -764.619 66.4202 -721.229C105.36 -583.308 17.0346 -340.442 -15.5142 -256.541C-51.9583 -162.599 -243.382 163.298 -379.093 355.911C-459.039 469.378 -516.712 655.085 -526.505 732.067C-533.076 783.719 -525.226 831.655 -506.855 866.387C-482.711 912.032 -423.774 902.511 -385.339 894.356C-309.125 878.184 -227.217 797.056 -85.0854 636.743C13.4108 525.647 136.828 351.408 296.168 94.0216C498.113 -232.184 643.79 -447.636 736.408 -501.346C806.928 -542.242 931.519 -488.947 1053.61 -400.357C1076.17 -383.983 1078.95 -356.705 1081.93 -334.905C1087.72 -292.617 1055.77 -176.333 1001.6 -4.30971C954.364 145.661 866.216 258.929 760.14 365.933C494.771 633.622 296.967 726.109 225.42 809.182C154.812 891.164 109.967 1005.4 82.7718 1091.36C55.2439 1178.37 101.636 1246.07 131.417 1289C157.379 1326.42 221.218 1342.82 294.216 1353.66C363.888 1364.01 477.9 1248.31 566.619 1138.18C735.241 928.877 739.562 846.324 828.242 785.981C932.86 714.792 1012.15 763.765 1073.04 777.679C1097.33 786.04 1115.74 811.894 1125.56 851.275C1127.89 869.888 1124.8 885.719 1121.62 902.029" stroke="url(#paint2_radial_609_3)" stroke-width="300" stroke-linecap="round"/>
<path d="M-486.551 -4.86607C-459.963 -433.788 -422.699 -625.384 -332.944 -781.427C-284.391 -865.839 -185.821 -864.493 -123.339 -873.122C-69.1543 -880.605 -32.7961 -857.328 -3.02512 -837.689C34.4033 -812.999 54.1695 -764.619 66.4202 -721.229C105.36 -583.308 17.0346 -340.442 -15.5142 -256.541C-51.9583 -162.599 -243.382 163.298 -379.093 355.911C-459.039 469.378 -516.712 655.085 -526.505 732.067C-533.076 783.719 -525.226 831.655 -506.855 866.387C-482.711 912.032 -423.774 902.511 -385.339 894.356C-309.125 878.184 -227.217 797.056 -85.0854 636.743C13.4108 525.647 136.828 351.408 296.168 94.0216C498.113 -232.184 643.79 -447.636 736.408 -501.346C806.928 -542.242 931.519 -488.947 1053.61 -400.357C1076.17 -383.983 1078.95 -356.705 1081.93 -334.905C1087.72 -292.617 1055.77 -176.333 1001.6 -4.30971C954.364 145.661 866.216 258.929 760.14 365.933C494.771 633.622 296.967 726.109 225.42 809.182C154.812 891.164 109.967 1005.4 82.7718 1091.36C55.2439 1178.37 101.636 1246.07 131.417 1289C157.379 1326.42 221.218 1342.82 294.216 1353.66C363.888 1364.01 477.9 1248.31 566.619 1138.18C735.241 928.877 739.562 846.324 828.242 785.981C932.86 714.792 1012.15 763.765 1073.04 777.679C1097.33 786.04 1115.74 811.894 1125.56 851.275C1127.89 869.888 1124.8 885.719 1121.62 902.029" stroke="url(#paint3_radial_609_3)" stroke-width="300" stroke-linecap="round" style="mix-blend-mode:plus-lighter"/>
</g>
</g>
<defs>
<filter id="filter0_iiiif_609_3" x="-388.619" y="-1385.24" width="2255.12" height="2828.87" filterUnits="userSpaceOnUse" color-interpolation-filters="sRGB">
<feFlood flood-opacity="0" result="BackgroundImageFix"/>
<feBlend mode="normal" in="SourceGraphic" in2="BackgroundImageFix" result="shape"/>
<feColorMatrix in="SourceAlpha" type="matrix" values="0 0 0 0 0 0 0 0 0 0 0 0 0 0 0 0 0 0 127 0" result="hardAlpha"/>
<feOffset dy="-7.50001"/>
<feGaussianBlur stdDeviation="7.50001"/>
<feComposite in2="hardAlpha" operator="arithmetic" k2="-1" k3="1"/>
<feColorMatrix type="matrix" values="0 0 0 0 0 0 0 0 0 0 0 0 0 0 0 0 0 0 0.95 0"/>
<feBlend mode="overlay" in2="shape" result="effect1_innerShadow_609_3"/>
<feColorMatrix in="SourceAlpha" type="matrix" values="0 0 0 0 0 0 0 0 0 0 0 0 0 0 0 0 0 0 127 0" result="hardAlpha"/>
<feOffset dx="-30" dy="-22.5"/>
<feGaussianBlur stdDeviation="26.25"/>
<feComposite in2="hardAlpha" operator="arithmetic" k2="-1" k3="1"/>
<feColorMatrix type="matrix" values="0 0 0 0 0 0 0 0 0 0 0 0 0 0 0 0 0 0 0.15 0"/>
<feBlend mode="plus-darker" in2="effect1_innerShadow_609_3" result="effect2_innerShadow_609_3"/>
<feColorMatrix in="SourceAlpha" type="matrix" values="0 0 0 0 0 0 0 0 0 0 0 0 0 0 0 0 0 0 127 0" result="hardAlpha"/>
<feOffset dy="15"/>
<feGaussianBlur stdDeviation="7.50001"/>
<feComposite in2="hardAlpha" operator="arithmetic" k2="-1" k3="1"/>
<feColorMatrix type="matrix" values="0 0 0 0 1 0 0 0 0 1 0 0 0 0 1 0 0 0 0.35 0"/>
<feBlend mode="plus-lighter" in2="effect2_innerShadow_609_3" result="effect3_innerShadow_609_3"/>
<feColorMatrix in="SourceAlpha" type="matrix" values="0 0 0 0 0 0 0 0 0 0 0 0 0 0 0 0 0 0 127 0" result="hardAlpha"/>
<feOffset dy="30"/>
<feGaussianBlur stdDeviation="18.75"/>
<feComposite in2="hardAlpha" operator="arithmetic" k2="-1" k3="1"/>
<feColorMatrix type="matrix" values="0 0 0 0 1 0 0 0 0 1 0 0 0 0 1 0 0 0 0.25 0"/>
<feBlend mode="plus-lighter" in2="effect3_innerShadow_609_3" result="effect4_innerShadow_609_3"/>
<feGaussianBlur stdDeviation="75.0001" result="effect5_foregroundBlur_609_3"/>
</filter>
<filter id="filter1_iiiif_609_3" x="-947.183" y="-1292.95" width="2491.91" height="3065.66" filterUnits="userSpaceOnUse" color-interpolation-filters="sRGB">
<feFlood flood-opacity="0" result="BackgroundImageFix"/>
<feBlend mode="normal" in="SourceGraphic" in2="BackgroundImageFix" result="shape"/>
<feColorMatrix in="SourceAlpha" type="matrix" values="0 0 0 0 0 0 0 0 0 0 0 0 0 0 0 0 0 0 127 0" result="hardAlpha"/>
<feOffset dy="-7.50001"/>
<feGaussianBlur stdDeviation="7.50001"/>
<feComposite in2="hardAlpha" operator="arithmetic" k2="-1" k3="1"/>
<feColorMatrix type="matrix" values="0 0 0 0 0 0 0 0 0 0 0 0 0 0 0 0 0 0 0.95 0"/>
<feBlend mode="overlay" in2="shape" result="effect1_innerShadow_609_3"/>
<feColorMatrix in="SourceAlpha" type="matrix" values="0 0 0 0 0 0 0 0 0 0 0 0 0 0 0 0 0 0 127 0" result="hardAlpha"/>
<feOffset dx="-30" dy="-22.5"/>
<feGaussianBlur stdDeviation="26.25"/>
<feComposite in2="hardAlpha" operator="arithmetic" k2="-1" k3="1"/>
<feColorMatrix type="matrix" values="0 0 0 0 0 0 0 0 0 0 0 0 0 0 0 0 0 0 0.15 0"/>
<feBlend mode="plus-darker" in2="effect1_innerShadow_609_3" result="effect2_innerShadow_609_3"/>
<feColorMatrix in="SourceAlpha" type="matrix" values="0 0 0 0 0 0 0 0 0 0 0 0 0 0 0 0 0 0 127 0" result="hardAlpha"/>
<feOffset dy="15"/>
<feGaussianBlur stdDeviation="7.50001"/>
<feComposite in2="hardAlpha" operator="arithmetic" k2="-1" k3="1"/>
<feColorMatrix type="matrix" values="0 0 0 0 1 0 0 0 0 1 0 0 0 0 1 0 0 0 0.35 0"/>
<feBlend mode="plus-lighter" in2="effect2_innerShadow_609_3" result="effect3_innerShadow_609_3"/>
<feColorMatrix in="SourceAlpha" type="matrix" values="0 0 0 0 0 0 0 0 0 0 0 0 0 0 0 0 0 0 127 0" result="hardAlpha"/>
<feOffset dy="30"/>
<feGaussianBlur stdDeviation="18.75"/>
<feComposite in2="hardAlpha" operator="arithmetic" k2="-1" k3="1"/>
<feColorMatrix type="matrix" values="0 0 0 0 1 0 0 0 0 1 0 0 0 0 1 0 0 0 0.25 0"/>
<feBlend mode="plus-lighter" in2="effect3_innerShadow_609_3" result="effect4_innerShadow_609_3"/>
<feGaussianBlur stdDeviation="134.198" result="effect5_foregroundBlur_609_3"/>
</filter>
<radialGradient id="paint0_radial_609_3" cx="0" cy="0" r="1" gradientUnits="userSpaceOnUse" gradientTransform="translate(895.337 163.938) rotate(125.958) scale(996.093 1068.06)">
<stop stop-color="#0075C4"/>
<stop offset="1" stop-color="white"/>
</radialGradient>
<radialGradient id="paint1_radial_609_3" cx="0" cy="0" r="1" gradientUnits="userSpaceOnUse" gradientTransform="translate(432.152 -875.071) rotate(111.039) scale(2025.17 2118.86)">
<stop offset="0.0340751" stop-color="#1F487E"/>
<stop offset="1" stop-color="#152A38" stop-opacity="0"/>
</radialGradient>
<radialGradient id="paint2_radial_609_3" cx="0" cy="0" r="1" gradientUnits="userSpaceOnUse" gradientTransform="translate(455.169 374.628) rotate(125.958) scale(996.093 1068.06)">
<stop stop-color="#0075C4"/>
<stop offset="1" stop-color="white"/>
</radialGradient>
<radialGradient id="paint3_radial_609_3" cx="0" cy="0" r="1" gradientUnits="userSpaceOnUse" gradientTransform="translate(-8.01635 -664.38) rotate(111.039) scale(2025.17 2118.86)">
<stop offset="0.0340751" stop-color="#1F487E"/>
<stop offset="1" stop-color="#152A38" stop-opacity="0"/>
</radialGradient>
<clipPath id="clip0_609_3">
<rect width="1843" height="1008" fill="white"/>
</clipPath>
</defs>
</svg>
