<svg width="500" height="500" viewBox="0 0 500 500" fill="none" xmlns="http://www.w3.org/2000/svg">
<path d="M306.209 349.074C304.618 338.545 303.067 327.99 301.68 317.432C300.26 306.624 302.819 296.89 304.699 286.345C305.929 279.449 307.206 272.289 305.522 265.349C304.048 259.278 299.739 255.905 296.664 251.265C306.373 239.718 303.494 218.861 285.378 219.077C280.598 219.134 278.711 221.444 273.472 215.666C271.766 213.786 270.399 210.768 269.081 208.635C265.35 202.595 261.597 196.568 257.788 190.576C255.563 187.076 253.297 183.689 250.984 180.365C250.291 172.99 248.02 165.06 246.129 159.598C242.092 147.933 234.355 138.171 230.596 126.307C228.861 120.831 228.02 115.284 226.824 109.697C225.69 104.402 223.56 103.08 220.631 98.6701C218.707 95.7719 215.203 90.0032 211.756 94.3851C211.716 94.3869 211.673 94.3972 211.652 94.4336C211.619 94.4959 211.593 94.5686 211.562 94.6327C211.514 94.6985 211.467 94.7452 211.418 94.8162C211.367 94.8924 211.368 94.9738 211.37 95.0569C209.559 98.9298 208.822 104.816 210.667 108.675C211.675 110.782 213.792 112.391 215.257 114.16C216.966 116.222 218.1 118.677 220.136 120.233C219.961 120.673 219.786 121.113 219.601 121.542C219.002 122.931 217.703 124.771 218.397 126.272C218.446 126.378 218.584 126.414 218.688 126.39C218.804 126.364 218.908 126.321 219.014 126.277C218.873 126.44 218.738 126.61 218.596 126.773C217.042 128.558 215.369 130.275 214.322 132.418C214.197 132.673 214.445 132.896 214.691 132.787C215.748 132.321 216.708 131.676 217.591 130.919C216.754 132.027 215.972 133.168 215.305 134.378C215.115 134.724 215.205 135.232 215.579 135.424C215.884 135.58 216.136 135.652 216.384 135.67C216.211 135.919 216.053 136.175 215.934 136.445C215.883 136.52 215.851 136.599 215.833 136.683C215.207 137.152 214.997 137.785 214.917 138.613C214.881 138.994 215.359 139.376 215.722 139.226C215.747 139.215 215.768 139.2 215.792 139.189C215.768 139.281 215.733 139.373 215.709 139.465C215.641 139.723 215.968 139.827 216.112 139.634C216.37 139.292 216.638 138.947 216.901 138.604C217.85 138.019 218.709 137.283 219.559 136.542C218.861 137.64 218.202 138.762 217.625 139.927C216.919 140.493 216.275 140.886 215.977 140.699C215.833 140.609 215.601 140.762 215.671 140.935C215.901 141.513 216.334 141.696 216.886 141.62C216.758 141.928 216.602 142.224 216.486 142.54C216.434 142.682 216.583 142.768 216.702 142.737C216.607 143.168 216.967 143.717 217.565 143.878C217.511 143.968 217.44 144.048 217.39 144.141C217.369 144.179 217.371 144.221 217.367 144.262C217.352 144.288 217.336 144.312 217.32 144.338C217.13 144.553 216.974 144.811 216.841 145.14C216.827 145.176 216.827 145.207 216.818 145.242C216.65 145.552 216.465 145.857 216.304 146.168C216.183 146.406 216.47 146.631 216.669 146.451C216.863 146.277 217.049 146.087 217.241 145.91C217.433 145.978 217.655 145.981 217.831 145.902C219.09 145.346 220.231 144.532 221.339 143.682C221.048 144.094 220.748 144.501 220.471 144.922C220.158 145.211 219.831 145.483 219.511 145.763C218.976 146.013 218.702 146.309 218.37 146.802C218.145 147.138 218.371 147.624 218.744 147.721C218.771 147.728 218.797 147.725 218.825 147.732C218.577 148.204 218.318 148.675 218.106 149.158C217.584 149.537 217.061 149.917 216.534 150.298C216.394 150.4 216.472 150.639 216.657 150.588C216.997 150.497 217.322 150.374 217.651 150.259C217.466 150.765 217.301 151.277 217.166 151.793C217.123 151.961 217.239 152.074 217.374 152.096C216.758 152.666 216.486 153.358 216.418 154.205C216.413 154.273 216.443 154.319 216.457 154.375C216.204 154.711 215.939 155.036 215.693 155.377C215.574 155.543 215.802 155.736 215.961 155.646C216.458 155.365 216.934 155.059 217.397 154.735C218.122 154.425 218.778 153.997 219.396 153.507C219.393 153.525 219.389 153.54 219.386 153.556C219.376 153.582 219.358 153.604 219.348 153.632C219.356 153.63 219.363 153.629 219.372 153.625C219.355 153.717 219.325 153.798 219.313 153.893C219.266 154.259 219.429 154.515 219.677 154.669C218.92 155.052 219.26 156.251 220.127 156.771C220.094 156.961 220.26 157.148 220.466 157.095C220.563 157.069 220.65 157.022 220.747 156.994C220.989 157.029 221.245 157.025 221.524 156.937C222.393 156.664 223.198 156.026 223.922 155.289C224.526 154.809 225.104 154.285 225.631 153.687C225.641 153.765 225.651 153.843 225.662 153.923C224.803 154.986 223.903 156.014 222.971 157.013C221.82 157.984 220.553 158.824 219.111 159.461C218.943 159.536 219.043 159.775 219.197 159.782C219.559 159.799 219.904 159.775 220.239 159.731C219.329 160.616 218.446 161.523 217.713 162.55C217.611 162.694 217.783 162.92 217.949 162.856C219.097 162.42 220.167 161.762 221.171 160.974C220.937 161.404 220.707 161.833 220.522 162.285C220.468 162.417 220.53 162.527 220.631 162.591C220.541 162.969 220.546 163.019 220.695 163.514C220.785 163.816 221.126 164.046 221.443 163.938C221.585 163.892 221.718 163.821 221.856 163.762C221.117 164.565 220.463 165.408 220.046 166.326C219.874 166.702 220.097 167.012 220.402 167.083C220.302 167.266 220.194 167.446 220.096 167.631C219.99 167.829 220.208 168.078 220.414 167.95C221.008 167.581 221.576 167.169 222.125 166.729C222.198 166.842 222.291 166.932 222.4 167.001C220.894 168.526 219.308 169.958 217.847 171.539C217.684 171.715 217.842 172.062 218.098 171.97C221.573 170.725 224.755 167.907 227.042 164.555C227.057 164.678 227.069 164.801 227.085 164.924C226.68 165.452 226.278 165.98 225.873 166.499C224.519 168.237 222.845 169.932 222.019 172.001C221.898 171.986 221.765 172.06 221.747 172.216C221.652 173.08 221.424 173.684 222.378 174.065C222.765 174.219 223.16 174.207 223.541 174.103C222.481 175.334 221.47 176.601 220.672 178.028C220.546 178.255 220.793 178.464 221.008 178.364C222.196 177.811 223.319 177.05 224.377 176.151C224.076 176.468 223.813 176.837 223.562 177.261C223.34 177.635 223.512 178.054 223.823 178.275C222.196 180.346 220.475 182.335 218.73 184.238C218.577 184.404 218.776 184.704 218.983 184.565C221.824 182.649 224.079 180.377 225.923 177.81C226.773 177.351 227.556 176.719 228.283 175.995C228.3 176.196 228.318 176.397 228.338 176.598C227.788 177.524 227.22 178.442 226.588 179.323C225.828 180.382 224.985 181.376 224.138 182.366C223.709 182.675 223.401 183.038 223.205 183.464C222.836 183.902 222.473 184.345 222.121 184.797C221.647 185.015 221.328 185.424 221.242 186.033C221.162 186.598 221.713 187.218 222.295 186.844C222.736 186.56 223.164 186.236 223.581 185.895C223.664 185.923 223.752 185.923 223.839 185.928C223.747 186.084 223.647 186.234 223.557 186.39C223.474 186.534 223.645 186.722 223.792 186.625C223.844 186.591 223.887 186.549 223.939 186.515C223.072 187.413 222.263 188.352 221.785 189.42C221.652 189.719 221.87 190.059 222.215 189.979C222.639 189.88 223.041 189.707 223.432 189.503C223.503 189.596 223.595 189.683 223.714 189.763C223.82 189.834 223.927 189.88 224.036 189.915C223.24 190.852 222.471 191.807 221.846 192.844C221.837 192.855 221.831 192.867 221.824 192.877C221.82 192.882 221.815 192.889 221.811 192.894L221.815 192.896C221.569 193.317 222.033 193.932 222.573 193.655C225.184 192.32 227.424 189.877 229.19 187.103C229.216 187.495 229.232 187.889 229.256 188.282C228.773 188.904 228.288 189.527 227.809 190.143C226.528 191.795 224.609 193.521 223.976 195.552C223.989 195.555 224.003 195.559 224.017 195.564C224.01 195.599 224.019 195.633 224.017 195.67C223.628 196.142 223.266 196.639 222.952 197.186C222.831 197.399 223.03 197.597 223.243 197.566C224.704 197.347 226.031 196.689 227.218 195.756C226.202 197.436 225.217 199.138 224.331 200.912C224.22 201.134 224.46 201.449 224.699 201.281C225.222 200.917 225.7 200.5 226.18 200.086C225.452 201.059 224.753 202.05 224.18 203.116C224.081 203.298 224.28 203.507 224.466 203.402C226.379 202.309 228.001 200.715 229.382 198.873C229.905 198.696 230.404 198.374 230.875 198C230.305 198.945 229.781 199.905 229.379 200.891C228.901 201.397 228.479 201.934 228.174 202.531C228.022 202.83 228.271 203.095 228.576 203.054C228.609 203.049 228.641 203.036 228.674 203.031C228.673 203.036 228.671 203.043 228.669 203.049C228.612 203.293 228.882 203.414 229.059 203.275C229.263 203.116 229.455 202.941 229.651 202.772C231.418 202.136 233.01 200.663 234.332 199.453C234.741 199.079 235.136 198.694 235.523 198.303C234.926 199.366 234.35 200.439 233.82 201.537C233.764 201.589 233.714 201.644 233.659 201.696C233.415 201.837 233.165 201.966 232.928 202.117C232.802 202.197 232.778 202.379 232.862 202.486C231.547 203.819 230.331 205.216 229.369 206.752C229.277 206.897 229.431 207.122 229.604 207.058C230.48 206.729 231.299 206.276 232.094 205.774C231.902 206.331 231.689 206.876 231.526 207.448C231.465 207.659 231.763 207.862 231.915 207.675C232.021 207.543 232.108 207.403 232.211 207.271C232.573 207.683 233.068 207.725 233.636 207.538C233.657 207.586 233.666 207.642 233.711 207.671C233.82 207.746 233.936 207.78 234.047 207.837C233.825 208.166 233.6 208.49 233.389 208.829C233.247 209.058 233.522 209.299 233.742 209.183C234.284 208.897 234.788 208.564 235.272 208.213C235.994 208.272 236.727 208.094 237.431 207.791C235.591 210.46 233.943 212.666 233.586 212.51C233.432 212.443 233.221 212.555 233.28 212.746C233.764 214.326 235.324 213.102 236.422 211.973C236.384 212.2 236.645 212.339 236.837 212.25C237.222 212.07 237.589 211.856 237.947 211.624C237.199 212.744 236.429 213.85 235.601 214.918C235.368 215.221 235.648 215.59 236.003 215.439C236.249 215.334 236.474 215.209 236.701 215.085C236.65 215.207 236.711 215.379 236.85 215.433C237.665 215.758 238.422 215.781 239.131 215.628C238.067 216.589 236.955 217.512 235.83 218.5C235.636 218.672 235.845 218.961 236.069 218.911C237.469 218.592 238.863 218.057 240.142 217.33C239.538 218.049 238.934 218.771 238.345 219.525C238.255 219.64 238.261 219.865 238.442 219.894C238.963 219.981 239.462 219.975 239.942 219.898C239.862 220.041 239.784 220.187 239.706 220.33C239.573 220.278 239.407 220.323 239.369 220.469C239.282 220.805 239.195 221.141 239.109 221.475C238.988 221.942 239.263 222.302 239.63 222.427C239.355 222.749 239.093 223.069 238.813 223.391C238.636 223.594 238.802 223.947 239.088 223.864C240.423 223.468 241.588 222.815 242.639 222.01C242.578 222.179 242.715 222.427 242.921 222.344C243.499 222.108 244.041 221.816 244.559 221.492C243.209 223.317 241.856 225.142 240.61 227.053C240.425 227.339 240.795 227.709 241.079 227.522C241.514 227.24 241.929 226.935 242.331 226.62C242.812 226.795 243.281 226.745 243.733 226.563C242.859 227.569 242.047 228.615 241.472 229.775C241.299 230.124 241.379 230.424 241.56 230.637C240.679 231.797 239.864 232.998 239.208 234.3C239.045 234.622 239.379 234.993 239.711 234.804C241.595 233.739 243.319 232.233 244.891 230.491C245.207 230.42 245.515 230.329 245.818 230.218C244.221 231.947 242.14 233.912 241.725 236.137C241.675 236.402 241.879 236.613 242.147 236.56C242.61 236.466 243.042 236.281 243.463 236.058C243.948 236.25 244.542 236.279 245.056 235.98C245.037 236.007 245.018 236.033 244.999 236.061C244.872 236.203 244.746 236.347 244.62 236.49C243.903 236.812 243.577 237.273 243.444 237.905C242.452 239.183 241.626 240.536 241.337 241.984C241.302 242.153 241.429 242.323 241.602 242.318C241.531 242.92 241.515 243.528 241.663 244.044C238.013 246.078 234.362 248.113 230.619 249.991C226.832 251.89 223.136 253.871 219.711 256.381C218.389 257.351 217.114 258.658 215.828 260C216.798 255.625 217.047 250.9 216.889 247.041C216.644 241.013 214.717 235.992 211.003 231.312C210.953 231.248 210.868 231.25 210.802 231.286C210.262 230.559 209.635 229.901 208.846 229.375C206.786 227.997 204.37 227.446 201.933 227.285C200.967 227.221 200.387 227.778 200.153 228.488C199.332 229.15 198.692 230.098 198.254 231.032C197.689 232.233 197.213 233.641 196.886 235.13C194.943 238.128 194.152 241.683 193.442 245.523C191.905 253.833 190.362 262.477 189.814 270.916C189.362 277.869 191.354 282.309 195.565 287.69C200.369 293.829 204.112 300.152 207.817 306.721C209.621 314.065 211.895 321.284 213.494 327.943C215.378 335.791 211.429 343.052 209.995 350.961C209.689 352.647 209.424 354.349 209.337 356C206.623 357.914 204.223 360.569 202.914 362.481C200.731 365.668 200.357 369.849 200.561 374.17C200.004 374.986 199.59 375.649 199.44 376.033C197.835 380.121 196.121 389.029 198.498 392.986C199.833 395.208 202.32 395.684 204.305 393.97C205.475 392.96 205.551 391.759 205.873 390.336C206.006 389.744 206.129 389.16 206.244 388.584C207.043 387.399 207.227 386.645 207.778 384.889C208.936 381.191 210.163 379.879 212.154 378.552C216.669 377.998 221.981 374.655 225.065 370.412C225.039 370.524 225.018 370.635 224.992 370.746C225.395 371.118 225.804 371.539 226.211 371.987C226.424 371.274 226.595 370.53 226.716 369.761C227.788 368.563 228.503 367.027 228.989 365.369C229.062 365.188 229.128 365.007 229.194 364.825C230.681 364.219 230.726 361.127 230.916 359.86C231.15 358.308 231.287 356.757 231.363 355.201C231.515 354.707 231.649 354.21 231.789 353.715C231.995 355.687 232.291 357.642 232.762 359.551C232.798 359.697 233.042 359.711 233.07 359.551C233.347 357.922 233.437 356.269 233.403 354.61C233.482 354.603 233.562 354.586 233.631 354.551C234.107 354.312 234.182 353.968 233.989 353.514C233.963 353.454 233.912 353.429 233.853 353.419C234.055 353.293 234.192 353.13 234.19 352.889C234.268 352.1 234.306 351.31 234.306 350.517C234.327 349.138 234.273 347.744 234.202 346.367C234.154 345.45 234.059 344.544 233.967 343.637C234.164 342.425 234.337 341.205 234.505 339.982C234.711 342.865 234.675 345.838 235.575 348.596C235.657 348.845 236.02 348.859 236.096 348.596C236.493 347.23 236.68 345.687 236.734 344.074C237.788 339.666 237.812 335.206 236.997 330.834C237.656 331.906 238.446 332.836 239.393 333.521C239.528 333.618 239.765 333.49 239.744 333.32C239.472 331.181 238.394 329.248 237.526 327.282C238.467 324.28 238.371 321.096 237.454 318.036C237.613 316.87 237.778 315.703 237.921 314.537C238.248 313.175 238.622 311.83 239.055 310.507C239.692 309.698 240.333 308.893 240.93 308.033C241.064 307.984 241.195 307.927 241.327 307.872C240.342 309.394 239.524 311.004 238.984 312.704C238.868 313.069 239.369 313.229 239.568 312.95C239.987 312.363 240.39 311.773 240.79 311.182C240.904 311.196 241.022 311.184 241.121 311.094C242.509 309.84 243.444 308.12 244.5 306.584C245.201 306.276 245.896 305.943 246.592 305.614C245.882 306.736 245.248 307.9 244.769 309.134C244.689 309.34 244.795 309.508 244.954 309.591C244.582 310.104 244.192 310.604 243.825 311.12C243.66 311.352 244.017 311.608 244.211 311.418C244.914 310.723 245.574 309.993 246.226 309.26C246.377 309.335 246.562 309.337 246.706 309.193C247.623 308.27 248.449 307.252 249.228 306.189C250.66 305.076 252.007 303.829 253.302 302.507C252.026 304.217 250.942 306.028 250.31 307.998C250.165 308.452 250.752 308.731 251.069 308.44C252.314 307.304 253.401 305.987 254.415 304.595C254.379 304.692 254.332 304.783 254.298 304.88C254.156 305.284 254.696 305.531 254.975 305.275C256.237 304.11 257.22 302.714 258.096 301.241C258.681 300.583 259.234 299.879 259.751 299.143C260.172 298.949 260.612 298.751 261.046 298.556C260.998 298.634 260.941 298.705 260.894 298.783C260.797 298.945 260.858 299.139 260.982 299.26C260.908 299.354 260.847 299.453 260.774 299.546C260.605 299.69 260.426 299.825 260.257 299.969C260.127 300.079 260.141 300.213 260.208 300.322C259.746 300.98 259.315 301.65 258.972 302.356C258.847 302.614 259.126 302.997 259.408 302.792C260.075 302.311 260.691 301.745 261.285 301.144C263.79 299.496 266.051 297.496 268.141 295.329C268.432 295.195 268.721 295.066 269.014 294.93C268.92 295.017 268.822 295.098 268.728 295.185C267.288 296.523 265.724 297.81 264.881 299.619C264.73 299.941 265.032 300.233 265.352 300.088C267.173 299.266 268.48 297.716 269.836 296.291C270.785 295.294 271.699 294.267 272.603 293.232C273.103 292.99 273.595 292.737 274.093 292.489C273.598 292.986 273.098 293.476 272.608 293.98C271.238 295.393 269.421 296.864 268.96 298.845C268.875 299.207 269.211 299.638 269.609 299.494C271.631 298.762 272.925 296.684 274.234 295.064C275.39 293.632 276.505 292.179 277.573 290.687C278.046 290.433 278.525 290.187 278.991 289.925C278.835 290.233 278.695 290.545 278.562 290.86C277.546 291.764 276.576 292.713 275.677 293.726C275.551 293.869 275.544 294.07 275.596 294.25C275.542 294.338 275.478 294.42 275.428 294.508C275.312 294.714 275.503 294.963 275.733 294.905C276.434 294.724 277.111 294.428 277.764 294.058C277.755 294.286 277.762 294.513 277.779 294.738C277.158 295.355 276.576 296.004 276.076 296.715C275.92 296.939 276.181 297.275 276.436 297.185C276.907 297.018 277.359 296.804 277.804 296.568C277.726 296.669 277.686 296.792 277.758 296.916C277.828 297.037 277.897 297.159 277.966 297.28C278.081 297.481 278.274 297.55 278.48 297.571C276.919 298.933 275.38 300.322 273.932 301.805C273.751 301.992 273.979 302.259 274.201 302.152C276.138 301.217 277.933 300.031 279.623 298.693C279.611 298.9 279.632 299.108 279.647 299.316C278.667 300.176 277.767 301.101 277.255 302.181C277.149 302.405 277.322 302.616 277.559 302.578C277.911 302.521 278.254 302.41 278.593 302.273C278.538 302.495 278.477 302.716 278.432 302.939C278.418 303.007 278.42 303.075 278.427 303.14C277.539 304.008 276.756 304.937 276.283 305.995C276.105 306.392 276.398 306.837 276.851 306.734C277.656 306.551 278.42 306.168 279.149 305.689C278.785 306.426 278.451 307.174 278.141 307.931C277.336 308.757 276.64 309.647 276.283 310.675C276.231 310.826 276.373 311.039 276.543 311.016C276.732 310.992 276.915 310.948 277.099 310.902C277.023 311.161 276.927 311.416 276.86 311.677C276.716 312.231 277.374 312.851 277.899 312.477C278.666 311.932 278.522 312.074 279.067 311.296C279.169 311.149 278.974 310.981 278.832 311.061C278.792 311.064 278.751 311.07 278.711 311.075C278.922 310.64 279.135 310.206 279.341 309.771C279.625 309.56 279.898 309.321 280.167 309.08C279.784 309.825 279.459 310.588 279.216 311.354C278.084 312.87 277.059 314.441 276.252 316.09C276.143 316.314 276.408 316.532 276.599 316.359C277.364 315.665 278.084 314.911 278.785 314.136C278.796 314.418 278.832 314.697 278.886 314.97C277.528 316.423 276.136 317.862 275.02 319.484C275.028 319.486 275.039 319.489 275.047 319.491C274.801 319.969 275.281 320.652 275.818 320.282C276.936 319.508 277.973 318.559 278.96 317.524C278.839 317.936 278.747 318.35 278.657 318.764C277.379 320.183 275.8 321.662 275.373 323.502C275.331 323.682 275.494 323.885 275.69 323.819C276.758 323.461 277.625 322.708 278.389 321.831C278.401 321.842 278.416 321.844 278.428 321.852C278.711 322.271 279.384 322.327 279.81 321.987C280.239 321.644 280.546 321.39 280.844 321.011C281.041 320.897 281.242 320.793 281.436 320.668C281.486 320.808 281.521 320.954 281.571 321.092C280.98 321.93 280.406 322.765 279.833 323.568C279.741 323.689 279.64 323.807 279.547 323.928C279.109 324.323 278.572 324.221 277.921 323.568C278.096 323.464 277.982 323.165 277.779 323.232C276.358 323.696 276.87 325.251 277.897 325.942C277.149 326.833 276.405 327.737 275.759 328.682C275.046 329.219 274.73 329.821 274.554 330.815C274.511 331.063 274.613 331.298 274.786 331.435C274.658 331.778 274.538 332.124 274.447 332.479C274.35 332.849 274.782 333.242 275.132 333.005C276.088 332.354 276.903 331.513 277.665 330.613C277.67 330.632 277.668 330.647 277.674 330.666C277.717 330.813 277.812 330.916 277.925 330.994C277.977 331.75 278.472 332.564 279.261 332.926C278.141 334.229 277.018 335.533 275.92 336.864C275.781 337.032 275.965 337.34 276.173 337.192C277.487 336.258 278.686 335.206 279.833 334.103C279.774 334.402 279.718 334.704 279.684 335.007C279.649 335.303 279.791 335.5 279.992 335.602C280.065 336.011 280.279 336.438 280.605 336.769C279.765 337.592 278.822 338.236 277.72 338.487C277.495 338.539 277.526 338.845 277.72 338.912C278.607 339.219 279.391 339.148 280.104 338.878C280.077 339.028 280.052 339.183 280.032 339.366C280.007 339.577 280.167 339.782 280.331 339.887C281.921 340.914 283.513 340.102 284.781 338.971C284.341 339.602 283.813 340.341 283.235 341.044C282.849 341.399 282.494 341.774 282.159 342.167L281.915 341.468C281.927 341.293 281.68 341.283 281.626 341.428C281.443 341.934 281.431 342.275 281.571 342.714C280.934 343.194 280.309 343.452 279.758 343.265C279.564 343.199 279.479 343.443 279.58 343.573C280.645 344.95 282.094 344.361 283.598 342.901C283.463 343.236 283.342 343.571 283.216 343.909C283.197 343.892 283.164 343.892 283.148 343.869C282.996 343.641 282.632 343.781 282.7 344.058C282.762 344.312 282.85 344.508 282.949 344.681C282.918 344.837 282.933 344.982 282.989 345.114C281.945 346.078 280.882 347.018 279.775 347.91C279.606 348.047 279.789 348.357 279.99 348.279C282.037 347.493 283.806 346.348 285.335 344.955C286.256 344.47 287.314 343.592 288.361 342.572C287.94 343.383 287.518 344.202 287.215 345.043C286.308 345.729 285.399 346.421 284.511 347.171C284.367 347.292 284.521 347.526 284.689 347.479C285.106 347.361 285.508 347.204 285.904 347.036C285.787 347.178 285.664 347.316 285.548 347.46C285.371 347.678 283.991 349.446 283.943 349.221C283.884 348.952 283.493 348.975 283.422 349.221C283.254 349.804 283.411 350.396 284.005 350.718C284.582 351.032 285.163 350.81 285.66 350.457C285.672 350.661 285.7 350.869 285.766 351.089C285.916 351.591 286.533 351.748 286.91 351.39C287.14 351.172 287.343 350.921 287.565 350.692C287.184 351.179 286.796 351.662 286.377 352.119C285.942 352.593 285.492 353.023 284.975 353.405C284.791 353.542 283.69 354.506 284.176 353.705C284.291 353.518 284.04 353.352 283.887 353.481C283.482 353.828 283.349 354.153 283.186 354.652C283.1 354.915 283.287 355.282 283.572 355.33C284.547 355.497 285.383 355.282 286.128 354.861C286.164 354.875 286.204 354.88 286.251 354.865C287.026 354.589 287.759 354.186 288.463 353.726C287.665 354.676 286.902 355.646 286.259 356.674C286.162 356.535 285.935 356.48 285.852 356.67C285.66 357.11 285.567 357.458 285.62 357.936C285.691 358.58 286.373 358.904 286.884 358.459C287.204 358.18 287.485 357.851 287.783 357.541C287.94 357.692 288.186 357.749 288.401 357.64C288.711 357.482 288.995 357.271 289.284 357.069C289.431 357.533 289.897 357.766 290.383 357.775C289.663 358.656 288.929 359.524 288.207 360.405C288.11 360.336 287.977 360.324 287.942 360.469C287.916 360.575 287.918 360.668 287.909 360.767C287.274 361.551 286.652 362.351 286.072 363.189C285.961 363.348 286.173 363.521 286.323 363.442C287.114 363.019 287.847 362.495 288.529 361.899C288.603 361.937 288.66 361.984 288.751 362.015C289.743 362.351 290.603 361.471 291.207 360.812C291.671 360.303 292.104 359.763 292.549 359.236C292.431 359.586 292.31 359.934 292.203 360.289C292.047 360.507 291.912 360.736 291.753 360.952C291.571 361.2 291.199 361.733 290.724 362.379C290.658 362.304 290.548 362.263 290.461 362.32C290.047 362.6 289.968 362.941 290.063 363.26C288.719 365.008 286.983 367.003 286.152 366.724C285.892 366.638 285.71 366.942 285.819 367.157C287.05 369.576 290.117 365.659 290.856 364.726C290.998 364.546 291.126 364.361 291.263 364.179C291.559 364.224 291.869 364.196 292.151 364.044C292.288 363.968 292.407 363.845 292.532 363.741C292.868 363.893 293.233 363.935 293.576 363.852C293.196 364.47 292.838 365.102 292.44 365.706C292.417 365.741 292.393 365.777 292.371 365.812C292.05 366.257 291.749 366.71 291.462 367.173C291.394 367.271 291.323 367.366 291.254 367.463C291.164 367.323 291.076 367.183 290.986 367.044C290.974 366.821 290.672 366.781 290.6 366.992C290.402 367.571 290.399 367.939 290.563 368.4C290.002 369.115 289.395 369.787 288.674 370.349C288.628 370.24 288.572 370.137 288.527 370.026C288.458 369.863 288.21 369.924 288.169 370.072C288.072 370.441 287.959 370.805 287.835 371.165C287.7 371.575 288.053 371.93 288.437 371.956C290.627 372.105 291.747 369.853 292.701 368.215C292.719 368.184 292.733 368.151 292.752 368.12C293.493 367.372 294.169 366.523 294.81 365.628C294.698 366.21 294.595 366.795 294.507 367.384C294.41 367.552 294.325 367.72 294.225 367.888C294.123 368.009 294.026 368.137 293.924 368.258C293.248 369.054 292.476 369.806 291.737 370.578C291.799 370.37 291.529 370.166 291.363 370.348C290.71 371.059 290.414 371.804 289.994 372.666C289.883 372.893 289.905 373.135 290.007 373.329C288.972 374.297 287.847 375.126 286.6 375.701C286.412 375.788 286.493 376.047 286.654 376.104C288.539 376.785 290.198 375.974 291.616 374.48C291.673 374.529 291.749 374.557 291.837 374.543C292.4 374.446 292.888 374.195 293.335 373.867C292.759 374.622 292.307 375.448 291.943 376.329C291.199 377.264 289.064 379.984 288.545 379.716C288.366 379.624 288.169 379.738 288.157 379.937C288.034 382.015 290.707 379.936 291.162 379.416C291.304 379.255 291.427 379.075 291.564 378.909C291.976 379.425 292.831 379.591 293.399 379.077C293.401 379.08 293.401 379.084 293.401 379.087C293.479 379.371 293.666 379.557 293.886 379.674C293.295 380.398 292.636 381.172 292.644 382.076C292.646 382.264 292.814 382.366 292.985 382.335C294.192 382.119 294.893 380.633 295.461 379.673C295.551 379.52 295.617 379.354 295.7 379.198C296.328 378.79 296.908 378.327 297.397 377.775C297.419 377.959 297.443 378.144 297.468 378.327C296.219 380.092 294.907 381.811 293.685 383.584C293.759 383.215 293.891 382.841 294.152 382.46C294.294 382.19 293.925 381.861 293.709 382.117C293.089 382.853 292.776 383.616 292.655 384.439C292.617 384.451 292.577 384.468 292.539 384.503C291.811 385.147 291.68 385.786 291.813 386.767C291.917 387.543 292.788 388.062 293.428 387.436C293.505 387.361 293.565 387.275 293.64 387.2C293.789 387.195 293.931 387.159 294.045 387.074C294.474 386.76 294.857 386.411 295.245 386.066C294.68 386.987 294.15 387.922 293.732 388.909C293.351 389.737 294.287 390.516 295.001 389.889C296.453 388.616 297.457 386.975 298.247 385.206C298.283 385.897 298.285 386.586 298.243 387.261C298.084 387.547 297.928 387.836 297.748 388.111C297.123 389.068 296.278 389.995 295.965 391.106C295.482 391.425 295.075 391.534 294.874 391.208C294.749 391.006 294.41 391.084 294.417 391.333C294.447 392.59 295.191 392.78 296.038 392.546C293.901 394.563 289.949 396.226 287.655 397.706C287.056 398.092 286.787 398.753 286.945 399.453C289.653 411.499 303.562 407.022 307.488 398.372C314.505 382.895 308.629 365.092 306.209 349.074ZM219.822 140.408C219.694 140.507 219.564 140.602 219.438 140.703C218.706 141.288 218.164 141.984 217.521 142.602C217.648 142.481 217.561 142.198 217.365 142.224C217.293 142.235 217.249 142.264 217.189 142.282C217.603 141.88 217.978 141.447 218.358 141.018C219.09 140.575 219.891 139.937 220.69 139.228C220.399 139.621 220.103 140.008 219.822 140.408ZM219.06 151.073C218.619 151.48 218.19 151.899 217.778 152.332L217.783 152.28C217.888 152.145 217.817 152.001 217.701 151.953C218.723 151.066 219.64 150.038 220.482 148.921C220.71 148.783 220.944 148.651 221.166 148.502C220.465 149.361 219.762 150.216 219.06 151.073ZM221.517 136.603C221.947 135.858 222.35 135.1 222.726 134.328C222.79 134.74 222.854 135.154 222.916 135.566C222.447 135.905 221.986 136.26 221.517 136.603ZM224.171 150.997C223.908 151.264 223.617 151.522 223.319 151.778C223.906 150.846 224.436 149.865 224.94 148.919C224.994 149.286 225.049 149.655 225.103 150.024C224.795 150.353 224.485 150.68 224.171 150.997ZM234.564 196.563C234.956 195.907 235.336 195.242 235.702 194.572C235.894 194.771 236.096 194.96 236.294 195.154C235.71 195.616 235.134 196.085 234.564 196.563ZM236.756 325.298C236.678 325.078 236.59 324.86 236.515 324.638C236.678 323.525 236.837 322.408 236.998 321.293C237.024 322.63 236.938 323.964 236.756 325.298ZM243.33 242.559C242.668 242.773 242.417 242.484 242.317 242.032C242.944 241.75 243.539 241.404 244.081 240.957C243.799 241.482 243.569 242.022 243.33 242.559ZM249.01 224.908C249.362 224.33 249.701 223.746 250.025 223.159C250.167 222.96 250.321 222.77 250.458 222.569C250.515 222.849 250.565 223.126 250.617 223.403C250.092 223.925 249.557 224.427 249.01 224.908ZM282.973 302.176C283.169 301.965 283.361 301.754 283.548 301.553C283.439 301.889 283.356 302.231 283.235 302.566C283.179 302.721 283.124 302.867 283.068 303.019C282.684 303.452 282.305 303.887 281.919 304.318C282.263 303.599 282.615 302.886 282.973 302.176ZM281.166 330.105C280.935 330.284 280.712 330.469 280.466 330.626C279.724 331.071 279.346 331.045 279.308 330.581C280.22 329.998 281.064 329.28 281.889 328.549C281.642 329.061 281.399 329.583 281.166 330.105ZM280.655 326.49C280.885 326.146 281.119 325.794 281.349 325.464C281.554 325.171 281.768 324.873 281.979 324.577C282.234 324.325 282.476 324.068 282.708 323.819C282.819 324.051 282.933 324.281 283.049 324.512C282.904 324.628 282.755 324.74 282.611 324.858C281.95 325.393 281.301 325.938 280.655 326.49ZM285.368 329.937C285.205 330.197 285.04 330.457 284.878 330.718C284.377 331.113 283.877 331.506 283.382 331.906C283.126 332.128 282.855 332.33 282.587 332.536C282.674 332.339 282.757 332.136 282.838 331.935C283.214 331.62 283.567 331.283 283.899 330.964C284.448 330.439 284.969 329.889 285.501 329.349C285.532 329.406 285.561 329.465 285.591 329.522C285.516 329.662 285.442 329.799 285.368 329.937ZM288.558 338.885C287.911 339.397 287.298 339.934 286.711 340.491C286.808 340.251 286.905 340.01 287 339.769C287.04 339.733 287.083 339.695 287.123 339.657C287.836 338.997 288.505 338.293 289.17 337.585C289.201 337.673 289.234 337.761 289.265 337.851C289.04 338.204 288.797 338.544 288.558 338.885ZM291.109 344.427C290.504 344.981 289.926 345.559 289.353 346.144C289.666 345.557 289.923 344.929 290.155 344.29C290.22 344.162 290.298 344.041 290.362 343.912C290.532 343.746 290.702 343.58 290.866 343.407C290.948 343.746 291.029 344.086 291.109 344.427Z" fill="#030D18"/>
</svg>
