<svg width="14" height="18" viewBox="0 0 14 18" fill="none" xmlns="http://www.w3.org/2000/svg">
<path d="M6.96803 0.525391L6.26625 1.22717C6.0392 1.45421 0.775879 6.77946 0.775879 11.2997C0.775879 14.7054 3.56235 17.4919 6.96803 17.4919C10.3737 17.4919 13.1602 14.7054 13.1602 11.2997C13.1602 6.8001 7.89685 1.45421 7.6698 1.22717L6.96803 0.525391ZM3.87195 10.2677C4.44989 10.2677 4.90398 10.7218 4.90398 11.2997C4.90398 12.435 5.8328 13.3638 6.96803 13.3638C7.54596 13.3638 8.00005 13.8179 8.00005 14.3958C8.00005 14.9737 7.54596 15.4278 6.96803 15.4278C4.69757 15.4278 2.83993 13.5702 2.83993 11.2997C2.83993 10.7218 3.29402 10.2677 3.87195 10.2677Z" fill="#779FE5"/>
</svg>
