<svg width="21" height="23" viewBox="0 0 21 23" fill="none" xmlns="http://www.w3.org/2000/svg">
<path d="M8.44728 3.21102C6.69159 11.3324 12.4864 16.5779 16.6979 18.0751C15.2007 19.2492 13.3373 19.917 11.3878 19.917C6.63774 19.917 2.77092 16.0502 2.77092 11.3001C2.77092 7.58408 5.14055 4.40661 8.44728 3.21102ZM11.377 0.539795C5.35598 0.539795 0.616699 5.4191 0.616699 11.3001C0.616699 17.2457 5.44214 22.0712 11.3878 22.0712C15.3839 22.0712 18.8521 19.8954 20.7155 16.6641C12.6265 16.3948 7.6933 7.58408 11.754 0.539795C11.6247 0.539795 11.5063 0.539795 11.377 0.539795Z" fill="#779FE5"/>
<path d="M1.69668 14.3628C1.58661 7.45837 4.69544 2.14911 8.38096 2.73896C9.43771 11.6176 12.2272 15.2368 17.8505 18.7909L11.7231 21.0049C7.71288 20.5135 4.15957 18.773 1.69668 14.3628Z" fill="#779FE5"/>
</svg>
