<svg width="528" height="251" viewBox="0 0 528 251" fill="none" xmlns="http://www.w3.org/2000/svg">
<path d="M277.887 175C279.606 180.59 279.214 184.18 278.795 185.888C269.441 183.202 259.785 181.99 259.707 181.98L259.707 181.98C259.745 182.011 274.751 194.475 271.356 213.313C271.059 214.958 270.884 216.571 270.812 218.145V218.145C262.24 207.097 246.118 205.21 246 205.196L246 205.196C246.045 205.227 259.943 214.786 253.513 241.194C264.82 241.101 269.876 235.034 272.126 230.001L272.126 230.001C274.81 240.135 280.55 246.8 280.55 246.8C280.55 246.8 287.904 244.252 294.954 241.051V241.051C293.471 245.947 289.8 250.495 290.185 250.819C290.329 250.941 290.58 251 290.917 251C293.979 251 304.153 246.155 306.338 240.095C306.338 240.095 307.594 236.611 308.921 232.237L308.92 232.237C316.216 225.622 325.416 215.125 325.416 215.125C325.416 215.125 321.075 212.881 315.585 209.643C306.189 192.2 302.045 190.607 302.033 190.602V190.602C302.169 193.132 300.014 193.411 300.014 193.411C293.986 185.759 277.964 175.051 277.888 175H277.887Z" fill="#030D18"/>
<path d="M385.491 0C384.058 0 383.201 0.112141 383.178 0.325177C383.033 1.6282 388.32 3.91602 391.139 9.00505L391.137 9.00538C386.476 9.39573 381.935 9.86282 379.051 10.2121C376.659 10.5019 374.789 11.0812 374.589 13.3551C374.444 15.0041 379.862 19.8398 381.966 27.117V27.1174L372.777 21.643C372.361 21.4888 371.932 21.4154 371.511 21.4154C370.128 21.4154 368.827 22.204 368.302 23.4974C366.69 27.4733 364.615 34.9491 367.279 43.011C367.738 44.404 369.111 45.2959 370.585 45.2959C370.891 45.2959 371.203 45.2575 371.511 45.1764L382.334 39.5207L382.335 39.5211C381.605 43.7255 379.815 48.7851 375.518 51.5642C374.754 52.2361 374.811 52.7528 374.811 52.7528C374.92 53.7385 376.257 54.6598 378.659 54.6598C378.723 54.6598 378.788 54.6592 378.854 54.6582C386.439 54.5464 392.856 54.3502 398.32 54.0756L398.322 54.076C396.655 59.6906 389.016 64.3209 389.705 65.7714C389.779 65.9266 390.06 66 390.514 66C395.023 66 416.487 58.7178 418.44 52.1259L418.439 52.1262C428.194 50.409 431.238 47.9327 435.577 44.928C441.874 40.5671 442.285 35.3659 440.328 34.0887C438.373 32.8111 438.323 31.2954 431.324 21.7161C427.95 17.0971 423.121 13.8242 418.391 11.663L418.39 11.6634C417.784 3.2779 393.234 0 385.491 0Z" fill="#030D18"/>
<path d="M19.4911 165C18.0581 165 17.201 165.112 17.1782 165.325C17.0326 166.628 22.3205 168.916 25.1385 174.005L25.1369 174.005C20.4759 174.396 15.935 174.863 13.0508 175.212C10.6591 175.502 8.78939 176.081 8.58859 178.355C8.4437 180.004 13.8619 184.84 15.9664 192.117V192.117L6.77713 186.643C6.36065 186.489 5.93194 186.415 5.51116 186.415C4.12841 186.415 2.82671 187.204 2.30173 188.497C0.690071 192.473 -1.38537 199.949 1.27856 208.011C1.73838 209.404 3.11054 210.296 4.58492 210.296C4.89124 210.296 5.20285 210.257 5.51116 210.176L16.334 204.521L16.3349 204.521C15.6049 208.726 13.8146 213.785 9.51847 216.564C8.75366 217.236 8.81056 217.753 8.81056 217.753C8.91973 218.739 10.2568 219.66 12.6588 219.66C12.7229 219.66 12.7881 219.659 12.8543 219.658C20.4385 219.546 26.8561 219.35 32.3199 219.076L32.3215 219.076C30.655 224.691 23.0165 229.321 23.7049 230.771C23.7786 230.927 24.0605 231 24.5137 231C29.0231 231 50.4875 223.718 52.4402 217.126L52.4385 217.126C62.1942 215.409 65.2379 212.933 69.577 209.928C75.8741 205.567 76.2849 200.366 74.3279 199.089C72.3726 197.811 72.3226 196.295 65.3242 186.716C61.9504 182.097 57.1207 178.824 52.3912 176.663L52.3902 176.663C51.7839 168.278 27.2338 165 19.4911 165Z" fill="#030D18"/>
<path d="M419.07 132V132.002C419.07 132 419.069 132 419.069 132C418.162 132 417.35 132.56 417.02 133.406C416.689 134.257 416.918 135.225 417.595 135.836L435.875 152.332L427.192 154.115L407.374 137.206C406.965 136.856 406.457 136.678 405.946 136.678C405.506 136.678 405.064 136.809 404.683 137.076C403.86 137.654 403.533 138.71 403.885 139.652L413.226 164.604L403.885 189.555C403.533 190.493 403.861 191.552 404.683 192.128C405.063 192.393 405.506 192.526 405.946 192.526C406.455 192.526 406.964 192.35 407.374 192.001L426.933 175.311C428.229 175.894 430.419 176.847 433.316 177.964C430.999 187.31 422.478 188.409 422.478 188.409C421.555 188.527 420.891 189.736 421.238 190.6C421.573 191.437 422.382 191.979 423.279 191.979H423.367C439.373 193.871 451.171 186.006 452.688 183.992C454.452 184.413 456.273 184.812 458.138 185.178C457.505 191.046 448.869 193.991 448.869 193.991C448.032 194.277 446.784 195.039 447.026 195.886C447.269 196.736 447.995 197.357 448.872 197.466C450.812 197.704 452.722 197.635 454.567 197.814C473.207 199.626 486.168 187.606 486.794 187.129C486.828 187.103 486.854 187.071 486.887 187.047C504.232 185.508 517.83 178.477 527.374 166.087C527.765 165.578 527.915 164.923 527.783 164.293C527.654 163.666 527.252 163.124 526.692 162.816L498.138 147.089C498.066 147.05 497.988 147.019 497.92 146.972C488.562 140.561 467.44 136.555 419.086 132H419.07Z" fill="#030D18"/>
<path d="M177.325 66V66.0022C177.325 66 177.324 66 177.324 66C176.416 66 175.604 66.5596 175.275 67.4063C174.944 68.2566 175.173 69.2253 175.85 69.836L194.13 86.3323L185.447 88.1148L165.629 71.2058C165.22 70.8559 164.712 70.6783 164.201 70.6783C163.761 70.6783 163.319 70.8092 162.938 71.0758C162.115 71.6537 161.788 72.7101 162.14 73.6516L171.481 98.6039L162.14 123.555C161.788 124.493 162.116 125.552 162.938 126.128C163.318 126.393 163.761 126.526 164.201 126.526C164.71 126.526 165.219 126.35 165.629 126.001L185.188 109.311C186.484 109.894 188.674 110.847 191.571 111.964C189.254 121.31 180.732 122.409 180.732 122.409C179.81 122.527 179.146 123.736 179.493 124.6C179.828 125.437 180.637 125.979 181.534 125.979H181.622C197.628 127.871 209.426 120.006 210.943 117.992C212.707 118.413 214.528 118.812 216.393 119.178C215.759 125.046 207.124 127.991 207.124 127.991C206.287 128.277 205.039 129.039 205.281 129.886C205.524 130.736 206.25 131.357 207.127 131.466C209.067 131.704 210.976 131.635 212.822 131.814C231.462 133.626 244.423 121.606 245.049 121.129C245.083 121.103 245.109 121.071 245.142 121.047C262.487 119.508 276.085 112.477 285.629 100.087C286.02 99.5784 286.169 98.9231 286.038 98.2927C285.909 97.6659 285.507 97.1237 284.947 96.8157L256.392 81.0886C256.321 81.0499 256.243 81.0192 256.175 80.9724C246.817 74.5611 225.695 70.555 177.341 66H177.325Z" fill="#030D18"/>
</svg>
