<svg width="2524" height="1069" viewBox="0 0 2524 1069" fill="none" xmlns="http://www.w3.org/2000/svg">
<path d="M5 81.9699C5 81.9699 72.5637 116.474 154.269 72.6804C235.974 28.8872 202.977 208.041 257.971 156.286C312.965 104.53 312.965 5 312.965 5M5 182.827C5 182.827 210.834 143.015 154.269 230.601C97.7037 318.188 5 290.32 5 290.32M5 335.44C5 335.44 129.129 423.026 173.124 379.233C217.119 335.44 250.115 292.974 295.681 314.207C341.247 335.44 510.942 320.842 449.664 379.233C422.582 405.039 377.386 429.662 446.669 480.09C515.951 530.519 484.955 569.252 440.236 579.62C360.102 598.199 396.241 456.203 312.965 514.594C229.689 572.985 334.962 569.004 257.971 596.872C180.98 624.741 180.98 533.173 154.269 533.173C127.557 533.173 173.124 680.477 113.416 663.226C53.7087 645.974 5 584.929 5 584.929M523.512 5C523.512 5 341.247 139.034 327.106 212.023C320.748 244.838 397.921 263.973 473.232 281.487C565.431 302.928 654.842 321.942 584.791 360.654C524.912 393.745 490.604 473.455 543.982 497.342C597.361 521.229 579.966 614.898 523.512 648.628C416.9 712.327 229.689 609.17 281.54 676.85C333.391 744.531 473.232 736.568 473.232 771.072C473.232 805.576 185.694 737.541 185.694 737.541C185.694 737.541 47.4237 691.094 154.269 817.934M5 756.12C5 756.12 39.5675 891.481 113.416 891.481C187.265 891.481 154.269 817.934 154.269 817.934M5 955.18C5 955.18 396.241 867.594 237.545 940.583C78.8487 1013.57 272.112 968.451 237.545 1013.57C202.977 1058.69 224.975 1013.57 154.269 1013.57C83.5625 1013.57 165.76 1044.31 173.124 1064M352.246 1064C229.689 1064 433.951 1013.57 416.667 911.387C399.384 809.203 154.269 817.934 154.269 817.934M485.802 1064C485.802 1064 484.231 725.598 589.505 708.346C694.779 691.094 631.929 856.977 650.784 924.658C669.639 992.338 715.205 805.222 760.771 783.989C806.337 762.756 669.639 596.872 669.639 596.872C669.639 596.872 688.494 498.669 737.202 497.342C785.911 496.015 925.752 583.601 925.752 634.03C925.752 684.459 795.339 626.068 803.195 663.226C811.051 700.383 933.609 783.989 869.187 783.989C804.766 783.989 873.901 1002.95 823.621 992.338C773.341 981.722 763.914 989.684 669.639 1013.57C575.364 1037.46 669.639 1064 669.639 1064M991.745 1064C998.03 1005.61 1070.31 1061.35 1153.58 1013.57C1236.86 965.797 1082.88 965.029 1049.88 891.481C1016.88 817.934 1206.02 891.574 1120.59 756.12C1035.15 620.667 932.739 787.544 908.469 867.594L869.187 1064M1262 708.346C1262 708.346 869.187 646.655 991.745 533.173C1114.3 419.69 952.464 496.015 869.187 480.09C785.911 464.165 1065.59 379.233 1095.45 350.038C1125.3 320.842 1103.3 557.06 1153.58 545.117C1203.86 533.173 1199.15 314.207 1186.58 290.32C1174.01 266.432 941.465 339.421 982.317 285.011C1023.17 230.601 1262 230.601 1262 230.601M1120.59 5C1120.59 5 1175.58 137.707 1136.3 137.707C1097.02 137.707 993.316 15.6165 982.317 99.2218C971.319 182.827 785.911 413.737 729.346 385.868C672.781 358 798.481 250.508 715.205 257.143C631.929 263.778 485.802 182.827 529.797 149.65C573.792 116.474 605.217 5 606.789 81.9699C608.36 158.94 729.346 194.771 773.341 182.827C817.336 170.883 669.639 43.485 715.205 18.2707C760.771 -6.94361 836.191 18.2707 823.621 72.6804C811.051 127.09 1049.88 5 1049.88 5" stroke="#779FE5" stroke-opacity="0.15" stroke-width="9"/>
<path d="M2519 81.9699C2519 81.9699 2451.44 116.474 2369.73 72.6804C2288.03 28.8872 2321.02 208.041 2266.03 156.286C2211.04 104.53 2211.04 5 2211.04 5M2519 182.827C2519 182.827 2313.17 143.015 2369.73 230.601C2426.3 318.188 2519 290.32 2519 290.32M2519 335.44C2519 335.44 2394.87 423.026 2350.88 379.233C2306.88 335.44 2273.89 292.974 2228.32 314.207C2182.75 335.44 2013.06 320.842 2074.34 379.233C2101.42 405.039 2146.61 429.662 2077.33 480.09C2008.05 530.519 2039.05 569.252 2083.76 579.62C2163.9 598.199 2127.76 456.203 2211.04 514.594C2294.31 572.985 2189.04 569.004 2266.03 596.872C2343.02 624.741 2343.02 533.173 2369.73 533.173C2396.44 533.173 2350.88 680.477 2410.58 663.226C2470.29 645.974 2519 584.929 2519 584.929M2000.49 5C2000.49 5 2182.75 139.034 2196.89 212.023C2203.25 244.838 2126.08 263.973 2050.77 281.487C1958.57 302.928 1869.16 321.942 1939.21 360.654C1999.09 393.745 2033.4 473.455 1980.02 497.342C1926.64 521.229 1944.03 614.898 2000.49 648.628C2107.1 712.327 2294.31 609.17 2242.46 676.85C2190.61 744.531 2050.77 736.568 2050.77 771.072C2050.77 805.576 2338.31 737.541 2338.31 737.541C2338.31 737.541 2476.58 691.094 2369.73 817.934M2519 756.12C2519 756.12 2484.43 891.481 2410.58 891.481C2336.74 891.481 2369.73 817.934 2369.73 817.934M2519 955.18C2519 955.18 2127.76 867.594 2286.46 940.583C2445.15 1013.57 2251.89 968.451 2286.46 1013.57C2321.02 1058.69 2299.03 1013.57 2369.73 1013.57C2440.44 1013.57 2358.24 1044.31 2350.88 1064M2171.75 1064C2294.31 1064 2090.05 1013.57 2107.33 911.387C2124.62 809.203 2369.73 817.934 2369.73 817.934M2038.2 1064C2038.2 1064 2039.77 725.598 1934.5 708.346C1829.22 691.094 1892.07 856.977 1873.22 924.658C1854.36 992.338 1808.8 805.222 1763.23 783.989C1717.66 762.756 1854.36 596.872 1854.36 596.872C1854.36 596.872 1835.51 498.669 1786.8 497.342C1738.09 496.015 1598.25 583.601 1598.25 634.03C1598.25 684.459 1728.66 626.068 1720.81 663.226C1712.95 700.383 1590.39 783.989 1654.81 783.989C1719.23 783.989 1650.1 1002.95 1700.38 992.338C1750.66 981.722 1760.09 989.684 1854.36 1013.57C1948.64 1037.46 1854.36 1064 1854.36 1064M1532.26 1064C1525.97 1005.61 1453.69 1061.35 1370.42 1013.57C1287.14 965.797 1441.12 965.029 1474.12 891.481C1507.12 817.934 1317.98 891.574 1403.41 756.12C1488.85 620.667 1591.26 787.544 1615.53 867.594L1654.81 1064M1262 708.346C1262 708.346 1654.81 646.655 1532.26 533.173C1409.7 419.69 1571.54 496.015 1654.81 480.09C1738.09 464.165 1458.41 379.233 1428.55 350.038C1398.7 320.842 1420.7 557.06 1370.42 545.117C1320.14 533.173 1324.85 314.207 1337.42 290.32C1349.99 266.432 1582.54 339.421 1541.68 285.011C1500.83 230.601 1262 230.601 1262 230.601M1403.41 5C1403.41 5 1348.42 137.707 1387.7 137.707C1426.98 137.707 1530.68 15.6165 1541.68 99.2218C1552.68 182.827 1738.09 413.737 1794.65 385.868C1851.22 358 1725.52 250.508 1808.8 257.143C1892.07 263.778 2038.2 182.827 1994.2 149.65C1950.21 116.474 1918.78 5 1917.21 81.9699C1915.64 158.94 1794.65 194.771 1750.66 182.827C1706.66 170.883 1854.36 43.485 1808.8 18.2707C1763.23 -6.94361 1687.81 18.2707 1700.38 72.6804C1712.95 127.09 1474.12 5 1474.12 5" stroke="#779FE5" stroke-opacity="0.15" stroke-width="9"/>
</svg>
