<svg width="19" height="20" viewBox="0 0 19 20" fill="none" xmlns="http://www.w3.org/2000/svg">
<path d="M7.27 2.48C5.64 10.02 11.02 14.89 14.93 16.28C13.54 17.37 11.81 17.99 10 17.99C5.59 17.99 2 14.4 2 9.99C2 6.54 4.2 3.59 7.27 2.48ZM9.99 0C4.4 0 0 4.53 0 9.99C0 15.51 4.48 19.99 10 19.99C13.71 19.99 16.93 17.97 18.66 14.97C11.15 14.72 6.57 6.54 10.34 0C10.22 0 10.11 0 9.99 0Z" fill="#B7C6DA"/>
<path d="M1.5001 12.5001C1.4013 6.26316 4.19182 1.46718 7.5 2C8.44855 10.0203 10.9525 13.2896 16 16.5001L10.5 18.5001C6.90032 18.0562 3.71082 16.4839 1.5001 12.5001Z" fill="#B7C6DA"/>
</svg>
