<svg width="20" height="13" viewBox="0 0 20 13" fill="none" xmlns="http://www.w3.org/2000/svg">
<path d="M10 1.625C12.1833 1.625 14.0667 3.13625 14.4917 5.22438L14.7417 6.44313L16.0167 6.5325C17.3167 6.61375 18.3333 7.67813 18.3333 8.9375C18.3333 10.2781 17.2083 11.375 15.8333 11.375H5C3.15833 11.375 1.66667 9.92063 1.66667 8.125C1.66667 6.45938 2.94167 5.07 4.63333 4.89937L5.525 4.81L5.94167 4.03813C6.73333 2.55125 8.28333 1.625 10 1.625ZM10 0C7.59167 0 5.5 1.3325 4.45833 3.2825C1.95 3.5425 0 5.61438 0 8.125C0 10.8144 2.24167 13 5 13H15.8333C18.1333 13 20 11.18 20 8.9375C20 6.7925 18.2917 5.05375 16.125 4.9075C15.5583 2.10437 13.0333 0 10 0Z" fill="#8293AB"/>
</svg>
