<svg width="26" height="26" viewBox="0 0 26 26" fill="none" xmlns="http://www.w3.org/2000/svg">
<path d="M6.80011 3.97543C9.00029 2.52968 11.6192 1.81581 14.2678 1.93983C16.9164 2.06386 19.4534 3.01917 21.5019 4.66387C23.5504 6.30857 25.0012 8.5549 25.6387 11.0692C26.2762 13.5835 26.0664 16.2315 25.0405 18.6201C24.0146 21.0086 22.2273 23.0102 19.9441 24.3274C17.661 25.6446 15.0037 26.2073 12.3671 25.9318C9.73052 25.6563 7.25524 24.5573 5.30896 22.7981C3.36268 21.0389 2.04925 18.7134 1.56376 16.1669L5.66816 15.4202C5.98915 17.1039 6.85758 18.6415 8.14443 19.8047C9.43128 20.9678 11.0679 21.6945 12.8112 21.8766C14.5545 22.0588 16.3114 21.6868 17.821 20.8158C19.3306 19.9449 20.5123 18.6215 21.1906 17.0422C21.8689 15.4629 22.0076 13.7121 21.5861 12.0497C21.1646 10.3873 20.2054 8.90201 18.851 7.81456C17.4965 6.72711 15.8191 6.09547 14.0679 6.01347C12.3167 5.93146 10.5851 6.40347 9.13036 7.35937L6.80011 3.97543Z" fill="#F9F9F9"/>
<path d="M3.73223 9.64185L5.1927 1.96475L11.6569 8.61893L3.73223 9.64185Z" fill="#F9F9F9"/>
</svg>
