<svg width="30" height="30" viewBox="0 0 30 30" fill="none" xmlns="http://www.w3.org/2000/svg">
<path d="M7.66467 4.58698C10.1446 2.91882 13.0964 2.09511 16.0817 2.23822C19.0671 2.38133 21.9266 3.48362 24.2355 5.38134C26.5445 7.27907 28.1797 9.87099 28.8982 12.7721C29.6168 15.6732 29.3803 18.7287 28.224 21.4847C27.0677 24.2407 25.0532 26.5501 22.4797 28.07C19.9063 29.5899 16.9112 30.2392 13.9394 29.9213C10.9676 29.6034 8.17766 28.3353 5.98395 26.3055C3.79023 24.2756 2.30981 21.5923 1.76261 18.6541L6.38881 17.7925C6.75061 19.7352 7.72944 21.5094 9.1799 22.8515C10.6304 24.1936 12.475 25.032 14.44 25.2422C16.4049 25.4524 18.3852 25.0231 20.0867 24.0182C21.7882 23.0133 23.1202 21.4863 23.8847 19.664C24.6493 17.8418 24.8056 15.8216 24.3305 13.9034C23.8554 11.9852 22.7742 10.2715 21.2476 9.01676C19.7209 7.76201 17.8303 7.03319 15.8564 6.93857C13.8826 6.84395 11.9308 7.38857 10.2912 8.49154L7.66467 4.58698Z" fill="#F9F9F9"/>
<path d="M4.20648 11.1251L5.85263 2.26694L13.1387 9.94485L4.20648 11.1251Z" fill="#F9F9F9"/>
</svg>
