<svg width="40" height="40" viewBox="0 0 40 40" fill="none" xmlns="http://www.w3.org/2000/svg">
<path d="M18.9 10.1C14.3 10.6 10.6 14.3 10.1 18.8C9.60001 23.5 12.3 27.7 16.4 29.3C16.7 29.4 17 29.2 17 28.8V27.2C17 27.2 16.6 27.3 16.1 27.3C14.7 27.3 14.1 26.1 14 25.4C13.9 25 13.7 24.7 13.4 24.4C13.1 24.3 13 24.3 13 24.2C13 24 13.3 24 13.4 24C14 24 14.5 24.7 14.7 25C15.2 25.8 15.8 26 16.1 26C16.5 26 16.8 25.9 17 25.8C17.1 25.1 17.4 24.4 18 24C15.7 23.5 14 22.2 14 20C14 18.9 14.5 17.8 15.2 17C15.1 16.8 15 16.3 15 15.6C15 15.2 15 14.6 15.3 14C15.3 14 16.7 14 18.1 15.3C18.6 15.1 19.3 15 20 15C20.7 15 21.4 15.1 22 15.3C23.3 14 24.8 14 24.8 14C25 14.6 25 15.2 25 15.6C25 16.4 24.9 16.8 24.8 17C25.5 17.8 26 18.8 26 20C26 22.2 24.3 23.5 22 24C22.6 24.5 23 25.4 23 26.3V28.9C23 29.2 23.3 29.5 23.7 29.4C27.4 27.9 30 24.3 30 20.1C30 14.1 24.9 9.39998 18.9 10.1Z" fill="#FCFDFF"/>
</svg>
