<svg width="100" height="100" viewBox="0 0 100 100" fill="none" xmlns="http://www.w3.org/2000/svg">
<g clip-path="url(#clip0_378_36)">
<path d="M88.25 63.5188L98.9688 68.8813C100.344 69.5688 100.344 71.5313 98.9688 72.2188L51.6688 95.875C51.1505 96.1336 50.5792 96.2682 50 96.2682C49.4208 96.2682 48.8495 96.1336 48.3312 95.875L1.03125 72.2188C0.72226 72.063 0.462579 71.8245 0.28114 71.5299C0.0997015 71.2353 0.00363019 70.896 0.00363019 70.55C0.00363019 70.204 0.0997015 69.8648 0.28114 69.5701C0.462579 69.2755 0.72226 69.037 1.03125 68.8813L11.7563 63.5188L44.9875 80.1375C48.1437 81.7125 51.8625 81.7125 55.0125 80.1375L88.2438 63.5125L88.25 63.5188ZM48.3312 0.39375C48.8495 0.135142 49.4208 0.00052566 50 0.00052566C50.5792 0.00052566 51.1505 0.135142 51.6688 0.39375L98.9688 24.0437C99.2775 24.2005 99.5368 24.4397 99.7179 24.7348C99.8991 25.0299 99.995 25.3694 99.995 25.7156C99.995 26.0619 99.8991 26.4014 99.7179 26.6965C99.5368 26.9916 99.2775 27.2308 98.9688 27.3875L51.6688 51.0313C51.1505 51.2899 50.5792 51.4245 50 51.4245C49.4208 51.4245 48.8495 51.2899 48.3312 51.0313L1.03125 27.3875C0.720622 27.2324 0.459352 26.9938 0.276741 26.6985C0.0941309 26.4032 -0.00259848 26.0628 -0.00259848 25.7156C-0.00259848 25.3684 0.0941309 25.0281 0.276741 24.7328C0.459352 24.4375 0.720622 24.1989 1.03125 24.0437L48.3312 0.39375Z" fill="#F9F9F9"/>
<path d="M88.25 41.1L98.9688 46.4625C100.344 47.15 100.344 49.1125 98.9688 49.8L51.6688 73.45C51.1505 73.7086 50.5792 73.8432 50 73.8432C49.4208 73.8432 48.8495 73.7086 48.3312 73.45L1.03125 49.8C0.72226 49.6443 0.462579 49.4058 0.28114 49.1111C0.0997015 48.8165 0.00363019 48.4773 0.00363019 48.1313C0.00363019 47.7852 0.0997015 47.446 0.28114 47.1514C0.462579 46.8567 0.72226 46.6182 1.03125 46.4625L11.7563 41.1L44.9875 57.7187C48.1437 59.2937 51.8625 59.2937 55.0125 57.7187L88.25 41.1Z" fill="#F9F9F9"/>
</g>
<defs>
<clipPath id="clip0_378_36">
<rect width="100" height="100" fill="white"/>
</clipPath>
</defs>
</svg>
