<svg width="100" height="100" viewBox="0 0 100 100" fill="none" xmlns="http://www.w3.org/2000/svg">
<g clip-path="url(#clip0_380_56)">
<path fill-rule="evenodd" clip-rule="evenodd" d="M37.5 78.125C37.5 78.9538 37.8292 79.7487 38.4153 80.3347C39.0013 80.9208 39.7962 81.25 40.625 81.25H90.625C91.4538 81.25 92.2487 80.9208 92.8347 80.3347C93.4208 79.7487 93.75 78.9538 93.75 78.125V21.875C93.75 21.0462 93.4208 20.2513 92.8347 19.6653C92.2487 19.0792 91.4538 18.75 90.625 18.75H40.625C39.7962 18.75 39.0013 19.0792 38.4153 19.6653C37.8292 20.2513 37.5 21.0462 37.5 21.875V34.375C37.5 35.2038 37.1708 35.9987 36.5847 36.5847C35.9987 37.1708 35.2038 37.5 34.375 37.5C33.5462 37.5 32.7513 37.1708 32.1653 36.5847C31.5792 35.9987 31.25 35.2038 31.25 34.375V21.875C31.25 19.3886 32.2377 17.004 33.9959 15.2459C35.754 13.4877 38.1386 12.5 40.625 12.5H90.625C93.1114 12.5 95.496 13.4877 97.2541 15.2459C99.0123 17.004 100 19.3886 100 21.875V78.125C100 80.6114 99.0123 82.996 97.2541 84.7541C95.496 86.5123 93.1114 87.5 90.625 87.5H40.625C38.1386 87.5 35.754 86.5123 33.9959 84.7541C32.2377 82.996 31.25 80.6114 31.25 78.125V65.625C31.25 64.7962 31.5792 64.0013 32.1653 63.4153C32.7513 62.8292 33.5462 62.5 34.375 62.5C35.2038 62.5 35.9987 62.8292 36.5847 63.4153C37.1708 64.0013 37.5 64.7962 37.5 65.625V78.125Z" fill="#3D4756"/>
<path fill-rule="evenodd" clip-rule="evenodd" d="M0.912471 52.2125C0.621451 51.9222 0.390558 51.5774 0.233018 51.1977C0.0754773 50.8181 -0.00561523 50.411 -0.00561523 50C-0.00561523 49.589 0.0754773 49.1819 0.233018 48.8023C0.390558 48.4226 0.621451 48.0778 0.912471 47.7875L19.6625 29.0375C19.953 28.747 20.298 28.5165 20.6776 28.3592C21.0572 28.202 21.4641 28.1211 21.875 28.1211C22.2859 28.1211 22.6927 28.202 23.0724 28.3592C23.452 28.5165 23.7969 28.747 24.0875 29.0375C24.378 29.328 24.6085 29.673 24.7657 30.0526C24.923 30.4322 25.0039 30.8391 25.0039 31.25C25.0039 31.6609 24.923 32.0678 24.7657 32.4474C24.6085 32.827 24.378 33.172 24.0875 33.4625L10.6687 46.875H65.625C66.4538 46.875 67.2486 47.2042 67.8347 47.7903C68.4207 48.3763 68.75 49.1712 68.75 50C68.75 50.8288 68.4207 51.6237 67.8347 52.2097C67.2486 52.7958 66.4538 53.125 65.625 53.125H10.6687L24.0875 66.5375C24.378 66.8281 24.6085 67.173 24.7657 67.5526C24.923 67.9322 25.0039 68.3391 25.0039 68.75C25.0039 69.1609 24.923 69.5678 24.7657 69.9474C24.6085 70.327 24.378 70.672 24.0875 70.9625C23.7969 71.2531 23.452 71.4835 23.0724 71.6408C22.6927 71.798 22.2859 71.8789 21.875 71.8789C21.4641 71.8789 21.0572 71.798 20.6776 71.6408C20.298 71.4835 19.953 71.2531 19.6625 70.9625L0.912471 52.2125Z" fill="#3D4756"/>
</g>
<defs>
<clipPath id="clip0_380_56">
<rect width="100" height="100" fill="white"/>
</clipPath>
</defs>
</svg>
